<svg width="42" height="38" viewBox="0 0 42 38" fill="none" xmlns="http://www.w3.org/2000/svg">
<g id="Group">
<path id="Vector" d="M28.9936 15.8466C28.0077 15.8466 27.2085 15.0473 27.2085 14.0614C27.2085 13.3217 27.6585 12.687 28.2997 12.4162C26.5089 10.4087 23.9023 9.14453 21.0003 9.14453C15.5997 9.14453 11.2217 13.5226 11.2217 18.9232C11.2217 24.3237 15.5996 28.7017 21.0002 28.7017C26.4008 28.7017 30.7788 24.3236 30.7788 18.9231C30.7788 17.6931 30.5518 16.5164 30.1373 15.4322C29.8166 15.7005 29.4117 15.8472 28.9936 15.8466Z" stroke="white" stroke-width="1.62602" stroke-miterlimit="10" stroke-linecap="round" stroke-linejoin="round"/>
<path id="Vector_2" d="M41 18.9222C41 18.9222 32.0457 32.3757 21 32.3757C9.95431 32.3757 1 18.9222 1 18.9222C1 18.9222 9.95431 5.46875 21 5.46875C32.0457 5.46875 41 18.9222 41 18.9222Z" stroke="white" stroke-width="1.62602" stroke-miterlimit="10" stroke-linecap="round" stroke-linejoin="round"/>
<path id="Vector_3" d="M21.0002 22.9672C23.2348 22.9672 25.0463 21.1557 25.0463 18.9211C25.0463 16.6865 23.2348 14.875 21.0002 14.875C18.7656 14.875 16.9541 16.6865 16.9541 18.9211C16.9541 21.1557 18.7656 22.9672 21.0002 22.9672Z" stroke="white" stroke-width="1.62602" stroke-miterlimit="10" stroke-linecap="round" stroke-linejoin="round"/>
<path id="Vector_4" d="M21.0002 14.0608V15.6799M21.0002 22.1651V23.7842M25.8619 18.9225H24.2428M17.7576 18.9225H16.1385M21.0002 1V2.28699M21.0002 35.558V36.845M8.32715 6.24943L9.23715 7.15943M32.7633 30.6856L33.6733 31.5956M33.6733 6.24943L32.7633 7.15943M9.23715 30.6856L8.32715 31.5956" stroke="white" stroke-width="1.62602" stroke-miterlimit="10" stroke-linecap="round" stroke-linejoin="round"/>
</g>
</svg>
