<svg width="32" height="32" viewBox="0 0 32 32" fill="none" xmlns="http://www.w3.org/2000/svg">
<path fill-rule="evenodd" clip-rule="evenodd" d="M5.18702 5.38762C3.33203 7.18931 3.33203 10.0891 3.33203 15.8886C3.33203 21.6881 3.33203 24.5879 5.18702 26.3897C7.04202 28.1913 10.0276 28.1913 15.9987 28.1913H15.9987H15.9987C21.9698 28.1913 24.9554 28.1913 26.8104 26.3897C28.6654 24.5879 28.6654 21.6881 28.6654 15.8886V15.8886V15.8886C28.6654 10.0891 28.6654 7.18931 26.8104 5.38762C24.9554 3.58594 21.9698 3.58594 15.9987 3.58594C10.0276 3.58594 7.04202 3.58594 5.18702 5.38762ZM10.168 15.4391C10.168 14.6951 10.338 14.5398 11.1528 14.5398H13.1225V12.2915C13.1225 9.80812 15.3271 7.79492 18.0467 7.79492H20.8498C21.6646 7.79492 21.8346 7.9502 21.8346 8.69424V10.4929C21.8346 11.2369 21.6646 11.3922 20.8498 11.3922H18.0467C17.5028 11.3922 17.0619 11.7948 17.0619 12.2915V14.5398H19.6956C20.7542 14.5398 20.9334 14.7568 20.6426 15.6862L20.2206 17.0352C20.0508 17.5777 19.8916 17.6874 19.2736 17.6874H17.0619V23.0833C17.0619 23.8273 16.8919 23.9827 16.0771 23.9827H14.1074C13.2926 23.9827 13.1225 23.8273 13.1225 23.0833V17.6874H11.1528C10.338 17.6874 10.168 17.5322 10.168 16.7881V15.4391Z" fill="white"/>
<path d="M5.18702 5.38762L4.66448 4.84961L4.66447 4.84962L5.18702 5.38762ZM5.18702 26.3897L4.66446 26.9277L4.66448 26.9277L5.18702 26.3897ZM26.8104 26.3897L27.333 26.9277L27.333 26.9277L26.8104 26.3897ZM26.8104 5.38762L27.333 4.84962L27.333 4.8496L26.8104 5.38762ZM13.1225 14.5398V15.2898C13.5367 15.2898 13.8725 14.954 13.8725 14.5398H13.1225ZM17.0619 14.5398H16.3119C16.3119 14.954 16.6477 15.2898 17.0619 15.2898V14.5398ZM20.6426 15.6862L21.3584 15.9102L21.3584 15.9101L20.6426 15.6862ZM20.2206 17.0352L20.9363 17.2592L20.2206 17.0352ZM17.0619 17.6874V16.9374C16.6477 16.9374 16.3119 17.2732 16.3119 17.6874H17.0619ZM13.1225 17.6874H13.8725C13.8725 17.2732 13.5367 16.9374 13.1225 16.9374V17.6874ZM4.08203 15.8886C4.08203 12.967 4.08372 10.8535 4.30682 9.24177C4.52662 7.6539 4.94846 6.66486 5.70956 5.92562L4.66447 4.84962C3.57059 5.91208 3.06494 7.27376 2.82099 9.03609C2.58034 10.7745 2.58203 13.0107 2.58203 15.8886H4.08203ZM5.70957 25.8517C4.94846 25.1124 4.52662 24.1233 4.30682 22.5354C4.08372 20.9237 4.08203 18.8102 4.08203 15.8886H2.58203C2.58203 18.7665 2.58034 21.0027 2.82099 22.7411C3.06494 24.5035 3.57059 25.8652 4.66446 26.9277L5.70957 25.8517ZM15.9987 27.4413C12.9925 27.4413 10.8112 27.4398 9.14642 27.2224C7.50102 27.0075 6.47371 26.5938 5.70955 25.8517L4.66448 26.9277C5.75532 27.9871 7.14829 28.4742 8.9522 28.7098C10.7367 28.9428 13.0337 28.9413 15.9987 28.9413V27.4413ZM15.9987 27.4413H15.9987V28.9413H15.9987V27.4413ZM15.9987 27.4413H15.9987V28.9413H15.9987V27.4413ZM26.2879 25.8516C25.5237 26.5938 24.4964 27.0075 22.851 27.2224C21.1862 27.4398 19.0049 27.4413 15.9987 27.4413V28.9413C18.9636 28.9413 21.2606 28.9428 23.0452 28.7098C24.8491 28.4742 26.2421 27.9871 27.333 26.9277L26.2879 25.8516ZM27.9154 15.8886C27.9154 18.8102 27.9137 20.9237 27.6906 22.5355C27.4708 24.1233 27.049 25.1124 26.2879 25.8517L27.333 26.9277C28.4268 25.8652 28.9325 24.5035 29.1764 22.7411C29.4171 21.0027 29.4154 18.7666 29.4154 15.8886H27.9154ZM27.9154 15.8886V15.8886H29.4154V15.8886H27.9154ZM27.9154 15.8886V15.8886H29.4154V15.8886H27.9154ZM26.2879 5.92561C27.049 6.66485 27.4708 7.65389 27.6906 9.24176C27.9137 10.8535 27.9154 12.967 27.9154 15.8886H29.4154C29.4154 13.0106 29.4171 10.7745 29.1764 9.03609C28.9325 7.27377 28.4268 5.91208 27.333 4.84962L26.2879 5.92561ZM15.9987 4.33594C19.0048 4.33594 21.1862 4.33744 22.851 4.55483C24.4964 4.76969 25.5237 5.18343 26.2879 5.92563L27.333 4.8496C26.2421 3.79013 24.8491 3.30302 23.0452 3.06746C21.2606 2.83443 18.9636 2.83594 15.9987 2.83594V4.33594ZM5.70956 5.92562C6.47372 5.18343 7.50103 4.76969 9.14643 4.55483C10.8112 4.33744 12.9925 4.33594 15.9987 4.33594V2.83594C13.0337 2.83594 10.7367 2.83443 8.9522 3.06746C7.14829 3.30302 5.75531 3.79013 4.66448 4.84961L5.70956 5.92562ZM11.1528 13.7898C10.9344 13.7898 10.7119 13.7993 10.5077 13.8403C10.2985 13.8823 10.0566 13.9671 9.8491 14.1566C9.43454 14.5352 9.41797 15.091 9.41797 15.4391H10.918C10.918 15.2711 10.9287 15.1923 10.9365 15.1601C10.9412 15.1404 10.9295 15.2013 10.8606 15.2643C10.7974 15.3219 10.7509 15.3214 10.8027 15.311C10.8595 15.2996 10.9638 15.2898 11.1528 15.2898V13.7898ZM13.1225 13.7898H11.1528V15.2898H13.1225V13.7898ZM12.3725 12.2915V14.5398H13.8725V12.2915H12.3725ZM18.0467 7.04492C14.9785 7.04492 12.3725 9.33123 12.3725 12.2915H13.8725C13.8725 10.285 15.6758 8.54492 18.0467 8.54492V7.04492ZM20.8498 7.04492H18.0467V8.54492H20.8498V7.04492ZM22.5846 8.69424C22.5846 8.3461 22.568 7.79029 22.1535 7.41173C21.946 7.22224 21.7041 7.13742 21.4949 7.09546C21.2907 7.05448 21.0682 7.04492 20.8498 7.04492V8.54492C21.0388 8.54492 21.1431 8.55477 21.1999 8.56616C21.2517 8.57656 21.2052 8.57707 21.142 8.5194C21.0731 8.45646 21.0614 8.39553 21.0661 8.41527C21.0739 8.44744 21.0846 8.52622 21.0846 8.69424H22.5846ZM22.5846 10.4929V8.69424H21.0846V10.4929H22.5846ZM20.8498 12.1422C21.0682 12.1422 21.2907 12.1326 21.4949 12.0917C21.7041 12.0497 21.946 11.9649 22.1535 11.7754C22.568 11.3968 22.5846 10.841 22.5846 10.4929H21.0846C21.0846 10.6609 21.0739 10.7397 21.0661 10.7718C21.0614 10.7916 21.0731 10.7307 21.142 10.6677C21.2052 10.61 21.2517 10.6106 21.1999 10.621C21.1431 10.6323 21.0388 10.6422 20.8498 10.6422V12.1422ZM18.0467 12.1422H20.8498V10.6422H18.0467V12.1422ZM17.8119 12.2915C17.8119 12.2736 17.8183 12.2439 17.8561 12.2094C17.895 12.1739 17.9604 12.1422 18.0467 12.1422V10.6422C17.1541 10.6422 16.3119 11.318 16.3119 12.2915H17.8119ZM17.8119 14.5398V12.2915H16.3119V14.5398H17.8119ZM19.6956 13.7898H17.0619V15.2898H19.6956V13.7898ZM21.3584 15.9101C21.4362 15.6616 21.5028 15.4006 21.5153 15.1524C21.5281 14.8948 21.4859 14.5684 21.2534 14.2868C21.0302 14.0167 20.7283 13.9068 20.4897 13.8552C20.2488 13.803 19.9749 13.7898 19.6956 13.7898V15.2898C19.8162 15.2898 19.9155 15.2929 19.9973 15.2989C20.0799 15.305 20.136 15.3134 20.1725 15.3212C20.2561 15.3393 20.1793 15.3418 20.0969 15.2421C20.0051 15.131 20.0193 15.033 20.0171 15.0775C20.016 15.0994 20.0113 15.141 19.9963 15.2091C19.9816 15.2763 19.959 15.3593 19.9268 15.4623L21.3584 15.9101ZM20.9363 17.2592L21.3584 15.9102L19.9269 15.4622L19.5048 16.8112L20.9363 17.2592ZM19.2736 18.4374C19.5792 18.4374 19.9918 18.4226 20.3405 18.1824C20.7059 17.9308 20.848 17.5415 20.9363 17.2592L19.5048 16.8112C19.468 16.9289 19.4444 16.9801 19.4334 16.9997C19.4275 17.0103 19.4438 16.9787 19.4897 16.9471C19.5328 16.9174 19.5587 16.9177 19.5258 16.9236C19.4866 16.9306 19.4126 16.9374 19.2736 16.9374V18.4374ZM17.0619 18.4374H19.2736V16.9374H17.0619V18.4374ZM17.8119 23.0833V17.6874H16.3119V23.0833H17.8119ZM16.0771 24.7327C16.2954 24.7327 16.5179 24.7231 16.7222 24.6821C16.9314 24.6401 17.1733 24.5553 17.3808 24.3658C17.7953 23.9872 17.8119 23.4314 17.8119 23.0833H16.3119C16.3119 23.2514 16.3011 23.3301 16.2934 23.3623C16.2886 23.3821 16.3003 23.3211 16.3693 23.2582C16.4324 23.2005 16.479 23.201 16.4272 23.2114C16.3704 23.2228 16.2661 23.2327 16.0771 23.2327V24.7327ZM14.1074 24.7327H16.0771V23.2327H14.1074V24.7327ZM12.3725 23.0833C12.3725 23.4315 12.3891 23.9873 12.8036 24.3658C13.0112 24.5553 13.253 24.6401 13.4622 24.6821C13.6665 24.7231 13.889 24.7327 14.1074 24.7327V23.2327C13.9183 23.2327 13.814 23.2228 13.7573 23.2114C13.7054 23.201 13.752 23.2005 13.8151 23.2582C13.8841 23.3211 13.8958 23.382 13.891 23.3623C13.8833 23.3301 13.8725 23.2514 13.8725 23.0833H12.3725ZM12.3725 17.6874V23.0833H13.8725V17.6874H12.3725ZM11.1528 18.4374H13.1225V16.9374H11.1528V18.4374ZM9.41797 16.7881C9.41797 17.1362 9.43453 17.6921 9.84912 18.0706C10.0566 18.2601 10.2985 18.3449 10.5077 18.3869C10.712 18.4278 10.9344 18.4374 11.1528 18.4374V16.9374C10.9638 16.9374 10.8595 16.9276 10.8027 16.9162C10.7508 16.9058 10.7974 16.9053 10.8606 16.9629C10.9295 17.0259 10.9412 17.0868 10.9365 17.0671C10.9287 17.0349 10.918 16.9561 10.918 16.7881H9.41797ZM9.41797 15.4391V16.7881H10.918V15.4391H9.41797Z" fill="white"/>
</svg>
