<svg width="41" height="41" viewBox="0 0 41 41" fill="none" xmlns="http://www.w3.org/2000/svg">
<g id="Group">
<path id="Vector" d="M31.3685 21.5698C31.1134 24.043 30.0174 26.3538 28.2638 28.1164C26.5101 29.879 24.2049 30.9865 21.7329 31.2542C21.6832 31.2536 21.6338 31.263 21.5877 31.2817C21.5416 31.3005 21.4997 31.3283 21.4645 31.3635C21.4293 31.3987 21.4015 31.4406 21.3827 31.4867C21.3639 31.5328 21.3546 31.5822 21.3552 31.632V39.7164C21.3552 39.9168 21.2756 40.109 21.1339 40.2507C20.9922 40.3924 20.8 40.472 20.5996 40.472C20.3992 40.472 20.207 40.3924 20.0654 40.2507C19.9237 40.109 19.8441 39.9168 19.8441 39.7164V36.7831C19.8369 36.6853 19.7947 36.5933 19.7254 36.524C19.656 36.4546 19.5641 36.4125 19.4663 36.4053C16.1059 36.1334 12.9184 34.8022 10.3627 32.6035C7.80697 30.4048 6.01477 27.4519 5.24405 24.1698C5.21536 24.0725 5.20654 23.9705 5.21811 23.8698C5.22967 23.769 5.26139 23.6717 5.31138 23.5835C5.36136 23.4953 5.42859 23.418 5.50905 23.3563C5.58951 23.2946 5.68157 23.2498 5.77973 23.2244C5.87789 23.1991 5.98016 23.1937 6.08043 23.2087C6.1807 23.2237 6.27693 23.2587 6.36339 23.3117C6.44984 23.3646 6.52476 23.4344 6.58367 23.517C6.64257 23.5995 6.68427 23.693 6.70628 23.792C7.39146 26.738 8.98913 29.3926 11.2716 31.3774C13.554 33.3622 16.4047 34.5758 19.4174 34.8453C19.5152 34.8942 19.6085 34.8453 19.7018 34.752C19.7512 34.7241 19.7911 34.6822 19.8164 34.6315C19.8417 34.5808 19.8514 34.5237 19.8441 34.4675V31.632C19.8447 31.5822 19.8353 31.5328 19.8165 31.4867C19.7977 31.4406 19.7699 31.3987 19.7347 31.3635C19.6995 31.3283 19.6577 31.3005 19.6115 31.2817C19.5654 31.263 19.5161 31.2536 19.4663 31.2542C17.0061 30.9801 14.7105 29.884 12.9507 28.1431C11.1913 26.3748 10.093 24.0557 9.83961 21.5742C9.8252 21.4834 9.7796 21.4004 9.71065 21.3396C9.64171 21.2788 9.55373 21.2439 9.46183 21.2409H1.37739C1.17111 21.2409 0.973277 21.1589 0.827415 21.0131C0.681554 20.8672 0.599609 20.6694 0.599609 20.4631C0.599609 20.2568 0.681554 20.059 0.827415 19.9131C0.973277 19.7673 1.17111 19.6853 1.37739 19.6853H4.4485C4.54014 19.6815 4.62768 19.6463 4.69646 19.5856C4.76524 19.5249 4.81107 19.4424 4.82628 19.352C5.02795 15.9966 6.27466 12.7884 8.39159 10.1773C10.5085 7.56624 13.3896 5.68311 16.6307 4.79198C16.827 4.75472 17.0301 4.79398 17.1984 4.9017C17.3666 5.00942 17.4873 5.17743 17.5356 5.37129C17.5839 5.56514 17.5562 5.77013 17.4582 5.94422C17.3602 6.11831 17.1993 6.2483 17.0085 6.30754C14.1088 7.08946 11.5256 8.75739 9.6197 11.0784C7.71378 13.3995 6.58025 16.2578 6.37739 19.2542C6.36485 19.3094 6.36535 19.3668 6.37884 19.4217C6.39233 19.4767 6.41844 19.5278 6.4551 19.5709C6.49176 19.6141 6.53797 19.648 6.59005 19.6702C6.64213 19.6924 6.69867 19.7021 6.75517 19.6986H9.44405C9.53595 19.6957 9.62393 19.6607 9.69288 19.5999C9.76182 19.5391 9.80742 19.4561 9.82183 19.3653C10.0735 16.8875 11.169 14.5715 12.9248 12.8052C14.6806 11.0389 16.99 9.92956 19.4663 9.66309C19.5161 9.66369 19.5654 9.65432 19.6115 9.63555C19.6577 9.61677 19.6995 9.58897 19.7347 9.55377C19.7699 9.51857 19.7977 9.47669 19.8165 9.43058C19.8353 9.38448 19.8447 9.33509 19.8441 9.28531V1.20087C19.8441 1.00048 19.9237 0.808304 20.0654 0.66661C20.207 0.524916 20.3992 0.445312 20.5996 0.445312C20.8 0.445312 20.9922 0.524916 21.1339 0.66661C21.2756 0.808304 21.3552 1.00048 21.3552 1.20087V10.3698C21.3602 10.4767 21.3429 10.5836 21.3043 10.6835C21.2656 10.7834 21.2066 10.8741 21.1308 10.9499C21.0551 11.0256 20.9644 11.0847 20.8645 11.1233C20.7646 11.1619 20.6577 11.1793 20.5507 11.1742C12.3329 11.1742 8.22628 21.2364 14.0352 27.0498C19.8441 32.8631 29.7596 28.7031 29.9018 20.4586C29.9006 20.3591 29.9194 20.2603 29.9569 20.1681C29.9945 20.0759 30.0501 19.9921 30.1205 19.9217C30.1909 19.8513 30.2746 19.7957 30.3668 19.7582C30.4591 19.7206 30.5578 19.7019 30.6574 19.7031H39.8218C40.0281 19.7031 40.2259 19.785 40.3718 19.9309C40.5177 20.0768 40.5996 20.2746 40.5996 20.4809C40.5996 20.6871 40.5177 20.885 40.3718 21.0308C40.2259 21.1767 40.0281 21.2586 39.8218 21.2586H36.7996C36.7058 21.2549 36.6142 21.2874 36.5438 21.3495C36.4735 21.4116 36.4298 21.4985 36.4218 21.592C36.1766 24.9683 34.8708 28.1808 32.691 30.7708C30.5113 33.3609 27.5689 35.196 24.2841 36.0142C23.2929 36.2498 22.9507 34.7386 23.9507 34.5031C26.8843 33.7737 29.515 32.1424 31.4725 29.8389C33.4299 27.5354 34.6154 24.6759 34.8618 21.6631C34.8744 21.6079 34.8739 21.5505 34.8604 21.4956C34.8469 21.4406 34.8208 21.3895 34.7841 21.3464C34.7475 21.3032 34.7013 21.2692 34.6492 21.2471C34.5971 21.2249 34.5406 21.2152 34.4841 21.2186H31.7463C31.6544 21.2216 31.5664 21.2566 31.4975 21.3174C31.4285 21.3782 31.3829 21.4612 31.3685 21.552V21.5698ZM37.4885 9.00087L32.0263 14.432C31.8928 14.5769 31.7075 14.6631 31.5107 14.672H27.8707C27.7714 14.6807 27.6754 14.7127 27.5907 14.7653L21.1196 21.2853C20.9741 21.4213 20.7815 21.4955 20.5824 21.4923C20.3833 21.4891 20.1932 21.4088 20.0521 21.2683C19.911 21.1278 19.8299 20.938 19.826 20.7389C19.822 20.5398 19.8954 20.3469 20.0307 20.2009L26.5018 13.6764C26.5454 13.6546 26.5818 13.6209 26.607 13.5792C26.6322 13.5375 26.645 13.4896 26.6441 13.4409V9.79198C26.6431 9.68686 26.6635 9.58265 26.704 9.48563C26.7445 9.38862 26.8042 9.30082 26.8796 9.22754L32.3107 3.80087C32.4156 3.68749 32.5522 3.60832 32.7027 3.57368C32.8532 3.53903 33.0107 3.55051 33.1545 3.60663C33.2984 3.66275 33.4221 3.7609 33.5094 3.88829C33.5967 4.01569 33.6436 4.16642 33.6441 4.32087V7.29865C33.6503 7.39678 33.6922 7.48926 33.7617 7.55879C33.8312 7.62832 33.9237 7.67014 34.0218 7.67642H36.9507C37.1069 7.67233 37.2608 7.71539 37.3922 7.79999C37.5236 7.88459 37.6264 8.00681 37.6873 8.15073C37.7483 8.29464 37.7644 8.45356 37.7337 8.60679C37.703 8.76002 37.6268 8.90044 37.5152 9.00976L37.4885 9.00087ZM31.2663 13.0009L34.4307 9.83642C34.4857 9.78563 34.5246 9.71981 34.5425 9.64713C34.5604 9.57445 34.5565 9.49811 34.5315 9.42759C34.5064 9.35706 34.4611 9.29545 34.4014 9.25041C34.3416 9.20537 34.2699 9.17887 34.1952 9.1742H32.8618C32.6554 9.17903 32.4554 9.10251 32.3049 8.96116C32.1544 8.81981 32.0655 8.62496 32.0574 8.41865V7.12531C32.057 7.04877 32.0342 6.97402 31.9917 6.91032C31.9493 6.84662 31.8891 6.79678 31.8186 6.76697C31.7481 6.73716 31.6704 6.7287 31.5951 6.74262C31.5199 6.75655 31.4503 6.79225 31.3952 6.84531L28.2841 10.0098C28.201 10.0821 28.1499 10.1843 28.1418 10.2942V12.752C28.1412 12.8018 28.1506 12.8511 28.1694 12.8973C28.1881 12.9434 28.216 12.9852 28.2512 13.0204C28.2864 13.0556 28.3282 13.0834 28.3743 13.1022C28.4204 13.121 28.4698 13.1304 28.5196 13.1298H31.0218C31.1196 13.1298 31.2129 13.1298 31.2574 13.032L31.2663 13.0009ZM27.0174 20.4675C27.0191 21.7383 26.6439 22.981 25.9391 24.0384C25.2343 25.0958 24.2316 25.9203 23.058 26.4077C21.8844 26.895 20.5926 27.0232 19.3461 26.776C18.0996 26.5288 16.9544 25.9174 16.0555 25.0192C15.1567 24.1209 14.5445 22.9762 14.2965 21.7299C14.0484 20.4836 14.1757 19.1917 14.6622 18.0177C15.1487 16.8438 15.9726 15.8405 17.0295 15.135C18.0864 14.4295 19.3288 14.0533 20.5996 14.0542C20.7906 14.0688 20.9689 14.155 21.0991 14.2955C21.2292 14.436 21.3015 14.6205 21.3015 14.812C21.3015 15.0035 21.2292 15.1879 21.0991 15.3284C20.9689 15.4689 20.7906 15.5551 20.5996 15.5698C19.303 15.5698 18.0595 16.0848 17.1426 17.0017C16.2258 17.9185 15.7107 19.162 15.7107 20.4586C15.7107 21.7553 16.2258 22.9988 17.1426 23.9156C18.0595 24.8325 19.303 25.3475 20.5996 25.3475C23.4352 25.3475 25.3241 23.2231 25.4618 20.4586C25.4574 20.3514 25.4751 20.2444 25.5138 20.1443C25.5525 20.0442 25.6113 19.9531 25.6867 19.8768C25.7621 19.8004 25.8524 19.7404 25.952 19.7004C26.0516 19.6604 26.1584 19.6414 26.2657 19.6444C26.3729 19.6475 26.4784 19.6726 26.5756 19.7181C26.6728 19.7637 26.7595 19.8288 26.8304 19.9094C26.9014 19.9899 26.955 20.0842 26.9879 20.1863C27.0208 20.2885 27.0324 20.3963 27.0218 20.5031L27.0174 20.4675Z" fill="white"/>
</g>
</svg>
