<svg width="430" height="462" viewBox="0 0 430 462" fill="none" xmlns="http://www.w3.org/2000/svg">
<path d="M118.875 416.535H92.8984V444.42H118.875V416.535Z" fill="#F9CBAB"/>
<path d="M151.491 453.303C142.975 449.869 120.577 439.942 118.586 439.055C108.947 446.235 97.2932 442.046 92.6712 439.055C88.3913 447.552 88.513 455.697 89.1084 457.914C89.1084 457.914 105.675 457.977 151.536 459.231C155.637 459.344 155.632 454.977 151.491 453.303Z" fill="#142537"/>
<path d="M89.9606 430.231C89.9606 433.258 121.021 433.05 120.636 430.231C124.666 356.526 127.307 293.18 119.126 210.654L66.0605 214.99C71.4771 246.878 81.7121 312.676 82.9387 320.77C84.4717 330.888 89.9606 422.62 89.9606 430.231Z" fill="url(#paint0_linear_909_10907)"/>
<path d="M89.9606 430.231C89.9606 433.258 121.021 433.05 120.636 430.231C124.666 356.526 127.307 293.18 119.126 210.654L66.0605 214.99C71.4771 246.878 81.7121 312.676 82.9387 320.77C84.4717 330.888 89.9606 422.62 89.9606 430.231Z" fill="url(#paint1_linear_909_10907)"/>
<path d="M89.9606 430.231C89.9606 433.258 121.021 433.05 120.636 430.231C124.666 356.526 127.307 293.18 119.126 210.654L66.0605 214.99C71.4771 246.878 81.7121 312.676 82.9387 320.77C84.4717 330.888 89.9606 422.62 89.9606 430.231Z" fill="url(#paint2_linear_909_10907)"/>
<path d="M89.9606 430.231C89.9606 433.258 121.021 433.05 120.636 430.231C124.666 356.526 127.307 293.18 119.126 210.654L66.0605 214.99C71.4771 246.878 81.7121 312.676 82.9387 320.77C84.4717 330.888 89.9606 422.62 89.9606 430.231Z" fill="#821A5D"/>
<path d="M90.6865 215.062L79.7538 293.926C77.7937 282.276 77.9272 261.023 75.8064 248.492L74.6992 215.062H90.6865Z" fill="#491557"/>
<path d="M61.6587 417.613H35.6826V445.499H61.6587V417.613Z" fill="#F9CBAB"/>
<path d="M94.4798 454.207C85.9642 450.773 63.5659 440.846 61.575 439.959C51.9359 447.14 40.2825 442.95 35.6605 439.959C31.3805 448.452 31.5022 456.601 32.0977 458.818C32.0977 458.818 48.6641 458.881 94.525 460.135C98.6262 460.248 98.6212 455.882 94.4798 454.207Z" fill="#142537"/>
<path d="M33.4023 432.412L34.8027 211.129L86.9987 215.033C82.0785 279.16 65.8533 423.345 65.1732 432.412C65.1732 435.403 33.4023 436.299 33.4023 432.412Z" fill="url(#paint3_linear_909_10907)"/>
<path d="M33.4023 432.412L34.8027 211.129L86.9987 215.033C82.0785 279.16 65.8533 423.345 65.1732 432.412C65.1732 435.403 33.4023 436.299 33.4023 432.412Z" fill="url(#paint4_linear_909_10907)"/>
<path d="M33.4023 432.412L34.8027 211.129L86.9987 215.033C82.0785 279.16 65.8533 423.345 65.1732 432.412C65.1732 435.403 33.4023 436.299 33.4023 432.412Z" fill="url(#paint5_linear_909_10907)"/>
<path d="M33.4023 432.412L34.8027 211.129L86.9987 215.033C82.0785 279.16 65.8533 423.345 65.1732 432.412C65.1732 435.403 33.4023 436.299 33.4023 432.412Z" fill="#821A5D"/>
<path d="M65.0303 61.4238C65.0303 61.4238 66.4167 63.8292 67.4804 65.8567C72.1074 74.6754 80.3565 78.34 88.0576 77.8911L88.9648 97.5538L65.1199 98.176C65.1199 86.8076 65.0303 72.7922 65.0303 61.4238Z" fill="url(#paint6_linear_909_10907)"/>
<path d="M65.0303 61.4238C65.0303 61.4238 66.4167 63.8292 67.4804 65.8567C72.1074 74.6754 80.3565 78.34 88.0576 77.8911L88.9648 97.5538L65.1199 98.176C65.1199 86.8076 65.0303 72.7922 65.0303 61.4238Z" fill="#E8C7B1"/>
<path d="M121.197 225.853L117.04 94.1242C103.239 89.5995 98.3748 91.898 88.552 89.1764C81.7183 101.576 66.5356 93.4641 65.1591 88.5859C62.657 91.0809 60.8475 92.3704 57.949 92.7645C43.9431 94.6681 36.8899 101.052 34.6262 103.587C34.2 135.123 34.1172 216.063 34.1172 234.534C34.1172 248.594 121.197 241.827 121.197 225.853Z" fill="#F8CD02"/>
<path d="M121.197 225.853L117.266 94.1242C103.692 89.8257 98.3748 91.898 88.552 89.1764C81.7183 101.576 66.5356 93.4641 65.1591 88.5859C62.657 91.0809 60.8475 92.3704 57.949 92.7645C43.9431 94.6681 36.8899 101.052 34.6262 103.587C34.2 135.123 34.1172 216.063 34.1172 234.534C34.1172 248.594 121.197 241.827 121.197 225.853Z" fill="#F94829"/>
<path d="M144.001 171.869C136.436 171.82 127.528 173.263 119.435 174.993C115.412 175.854 102.371 177.309 87.7579 178.939L87.4412 178.974L85.1553 163.658C94.2667 163.742 102.333 163.415 104.157 163.415C107.848 160.173 120.737 157.045 122.032 158.231C123.326 159.418 114.229 163.415 114.229 163.415C120.65 163.65 136.525 164.325 146.328 165.139C156.131 165.954 149.145 171.869 144.001 171.869Z" fill="#F9CBAB"/>
<path d="M23.919 133.114C25.7624 112.314 32.7051 96.1847 57.8894 92.7617C53.532 102.246 50.4814 136.147 51.4769 151.924H51.4783C51.4783 154.202 52.0683 160.792 53.4614 161.616C54.8551 162.441 82.9116 161.918 96.1066 161.969C98.9074 161.969 102.798 179.623 97.6305 180.253C80.8605 182.3 58.9653 182.86 46.2979 183.176C23.6842 183.742 22.753 146.273 23.919 133.114Z" fill="#E63415"/>
<path d="M95.2738 72.6301C99.389 65.0204 95.2738 33.3047 95.2738 33.3047L58.8438 41.4759C62.288 54.3298 58.7962 63.4607 68.6013 74.092C75.6188 80.7959 91.159 80.2402 95.2738 72.6301Z" fill="url(#paint7_linear_909_10907)"/>
<path d="M95.2738 72.6301C99.389 65.0204 95.2738 33.3047 95.2738 33.3047L58.8438 41.4759C62.288 54.3298 58.7962 63.4607 68.6013 74.092C75.6188 80.7959 91.159 80.2402 95.2738 72.6301Z" fill="#F9CBAB"/>
<path d="M64.3209 53.1742C69.0718 48.4232 68.2737 57.4799 68.3931 59.5088C70.4293 57.5496 71.65 50.4594 70.4293 48.4232C68.2818 44.8428 78.9498 37.977 82.8868 39.0507C91.1182 41.2968 92.1493 41.7461 94.2443 41.7461C92.3358 41.1493 88.7558 39.7412 87.897 38.8819C100.731 36.6449 93.5375 46.7142 98.0311 43.665C110.783 35.0114 102.197 16.0632 89.4594 23.3485C91.3684 21.3196 86.5441 18.6079 79.5729 19.2305C72.6016 19.8531 68.871 23.5367 65.6498 27.1171C65.6498 22.8209 73.5233 15.6601 76.3865 13.5117C69.2289 16.6623 63.1444 25.0873 60.9975 28.9062C60.6395 14.9438 49.187 32.5857 49.9028 45.4744C49.3065 43.0877 47.9703 37.5978 47.3975 34.7332C46.8251 37.0245 48.5906 47.1454 49.5449 51.9195C48.7096 50.2485 47.0396 45.7609 47.0396 41.1782C45.431 49.2259 46.9083 54.7664 54.1972 57.5496C54.1972 65.8561 56.5831 69.8424 57.7763 70.7971C57.2989 69.0071 56.4881 65.0684 57.0605 63.6363C58.8989 66.923 65.1113 69.6709 65.1113 69.6709C65.1113 69.6709 59.5699 57.9252 64.3209 53.1742Z" fill="url(#paint8_linear_909_10907)"/>
<path d="M64.3209 53.1742C69.0718 48.4232 68.2737 57.4799 68.3931 59.5088C70.4293 57.5496 71.65 50.4594 70.4293 48.4232C68.2818 44.8428 78.9498 37.977 82.8868 39.0507C91.1182 41.2968 92.1493 41.7461 94.2443 41.7461C92.3358 41.1493 88.7558 39.7412 87.897 38.8819C100.731 36.6449 93.5375 46.7142 98.0311 43.665C110.783 35.0114 102.197 16.0632 89.4594 23.3485C91.3684 21.3196 86.5441 18.6079 79.5729 19.2305C72.6016 19.8531 68.871 23.5367 65.6498 27.1171C65.6498 22.8209 73.5233 15.6601 76.3865 13.5117C69.2289 16.6623 63.1444 25.0873 60.9975 28.9062C60.6395 14.9438 49.187 32.5857 49.9028 45.4744C49.3065 43.0877 47.9703 37.5978 47.3975 34.7332C46.8251 37.0245 48.5906 47.1454 49.5449 51.9195C48.7096 50.2485 47.0396 45.7609 47.0396 41.1782C45.431 49.2259 46.9083 54.7664 54.1972 57.5496C54.1972 65.8561 56.5831 69.8424 57.7763 70.7971C57.2989 69.0071 56.4881 65.0684 57.0605 63.6363C58.8989 66.923 65.1113 69.6709 65.1113 69.6709C65.1113 69.6709 59.5699 57.9252 64.3209 53.1742Z" fill="#142537"/>
<path d="M187.646 58.0918C187.646 62.7491 185.137 64.7151 182.723 68.2014C182.195 68.9647 181.505 76.3373 181.082 79.8105C174.304 81.9824 168.68 74.427 167.39 72.9944C168.676 65.2164 169.715 58.7868 170.153 56.6828C171.495 50.2468 172.215 41.6987 172.215 39.2852C176.237 39.2852 175.495 48.3346 175.601 50.4477C175.869 55.8113 187.872 50.8522 187.646 58.0918Z" fill="#F4B88E"/>
<path d="M187.646 58.0918C187.646 62.7491 185.137 64.7151 182.723 68.2014C182.195 68.9647 181.505 76.3373 181.082 79.8105C174.304 81.9824 168.68 74.427 167.39 72.9944C168.676 65.2164 169.715 58.7868 170.153 56.6828C171.495 50.2468 172.215 41.6987 172.215 39.2852C176.237 39.2852 175.495 48.3346 175.601 50.4477C175.869 55.8113 187.872 50.8522 187.646 58.0918Z" fill="#F9CBAB"/>
<path d="M175.18 130.319C178.363 114.475 179.707 95.1634 181.849 77.2405C182.306 73.4139 167.614 69.0118 167.04 70.3479C162.767 86.4931 156.677 113.517 153.914 112.22C137.361 104.451 128.349 96.6099 110.477 92.3114C116.585 97.7411 117.49 113.125 117.942 127.831C129.771 132.735 171.997 146.163 175.18 130.319Z" fill="#E63415"/>
<path d="M210.471 181.443C210.471 178.944 212.496 176.918 214.995 176.918H420.419C422.917 176.918 424.944 178.944 424.944 181.443V217.188C424.944 228.433 415.826 237.549 404.582 237.549H214.995C212.496 237.549 210.471 235.523 210.471 233.025V181.443Z" fill="#821A5D"/>
<path d="M257.982 206.779C257.982 217.275 249.474 225.783 238.978 225.783C228.483 225.783 219.975 217.275 219.975 206.779C219.975 196.284 228.483 187.775 238.978 187.775C249.474 187.775 257.982 196.284 257.982 206.779Z" fill="#F6F7F7"/>
<path d="M274.271 199.768C274.271 199.143 274.777 198.637 275.402 198.637H331.961C332.586 198.637 333.093 199.143 333.093 199.768C333.093 200.392 332.586 200.899 331.961 200.899H275.402C274.777 200.899 274.271 200.392 274.271 199.768Z" fill="#F6F7F7"/>
<path d="M274.271 212.438C274.271 211.813 274.777 211.307 275.402 211.307H372.684C373.308 211.307 373.815 211.813 373.815 212.438C373.815 213.062 373.308 213.569 372.684 213.569H275.402C274.777 213.569 274.271 213.062 274.271 212.438Z" fill="#F6F7F7"/>
<path d="M402.775 169.676C402.775 167.427 404.599 165.604 406.848 165.604H425.852C428.1 165.604 429.924 167.427 429.924 169.676V188.68C429.924 190.928 428.1 192.752 425.852 192.752H406.848C404.599 192.752 402.775 190.928 402.775 188.68V169.676Z" fill="#E63415"/>
<path fill-rule="evenodd" clip-rule="evenodd" d="M413.825 183.989C414.241 184.399 414.915 184.363 415.286 183.911L421.983 175.695C422.327 175.273 422.264 174.651 421.838 174.306C421.417 173.962 420.793 174.025 420.449 174.448L414.449 181.828L412.178 179.583C411.789 179.198 411.164 179.203 410.78 179.59C410.395 179.978 410.4 180.604 410.789 180.987L413.825 183.99" fill="#FFFBF6"/>
<path d="M210.471 98.6419C210.471 96.1429 212.496 94.1172 214.995 94.1172H420.419C422.917 94.1172 424.944 96.1429 424.944 98.6419V134.387C424.944 145.633 415.826 154.749 404.582 154.749H214.995C212.496 154.749 210.471 152.723 210.471 150.224V98.6419Z" fill="#821A5D"/>
<path d="M262.505 123.978C262.505 134.474 253.997 142.982 243.501 142.982C233.005 142.982 224.497 134.474 224.497 123.978C224.497 113.483 233.005 104.975 243.501 104.975C253.997 104.975 262.505 113.483 262.505 123.978Z" fill="#F6F7F7"/>
<path d="M274.271 116.963C274.271 116.338 274.777 115.832 275.402 115.832H331.961C332.586 115.832 333.093 116.338 333.093 116.963C333.093 117.588 332.586 118.094 331.961 118.094H275.402C274.777 118.094 274.271 117.588 274.271 116.963Z" fill="#F6F7F7"/>
<path d="M274.271 129.633C274.271 129.008 274.777 128.502 275.402 128.502H372.684C373.308 128.502 373.815 129.008 373.815 129.633C373.815 130.258 373.308 130.764 372.684 130.764H275.402C274.777 130.764 274.271 130.258 274.271 129.633Z" fill="#F6F7F7"/>
<path d="M402.775 86.875C402.775 84.6257 404.599 82.8027 406.848 82.8027H425.852C428.1 82.8027 429.924 84.6257 429.924 86.875V105.879C429.924 108.128 428.1 109.951 425.852 109.951H406.848C404.599 109.951 402.775 108.128 402.775 105.879V86.875Z" fill="#E63415"/>
<path fill-rule="evenodd" clip-rule="evenodd" d="M413.825 101.186C414.241 101.596 414.915 101.559 415.286 101.108L421.983 92.8927C422.327 92.4696 422.264 91.8475 421.838 91.5032C421.417 91.1588 420.793 91.2222 420.449 91.6448L414.449 99.0251L412.178 96.7795C411.789 96.3958 411.164 96.3994 410.78 96.7876C410.395 97.1754 410.4 97.8007 410.789 98.1839L413.825 101.187" fill="#FFFBF6"/>
<path d="M210.471 15.8372C210.471 13.3382 212.496 11.3125 214.995 11.3125H420.419C422.917 11.3125 424.944 13.3382 424.944 15.8372V51.5826C424.944 62.8275 415.826 71.9439 404.582 71.9439H214.995C212.496 71.9439 210.471 69.9178 210.471 67.4192V15.8372Z" fill="#821A5D"/>
<path d="M257.982 41.1758C257.982 51.6713 249.474 60.1796 238.978 60.1796C228.483 60.1796 219.975 51.6713 219.975 41.1758C219.975 30.6802 228.483 22.1719 238.978 22.1719C249.474 22.1719 257.982 30.6802 257.982 41.1758Z" fill="#F6F7F7"/>
<path d="M274.271 34.1605C274.271 33.5356 274.777 33.0293 275.402 33.0293H331.961C332.586 33.0293 333.093 33.5356 333.093 34.1605C333.093 34.7849 332.586 35.2917 331.961 35.2917H275.402C274.777 35.2917 274.271 34.7849 274.271 34.1605Z" fill="#F6F7F7"/>
<path d="M274.271 46.8304C274.271 46.2055 274.777 45.6992 275.402 45.6992H372.684C373.308 45.6992 373.815 46.2055 373.815 46.8304C373.815 47.4548 373.308 47.9616 372.684 47.9616H275.402C274.777 47.9616 274.271 47.4548 274.271 46.8304Z" fill="#F6F7F7"/>
<path d="M402.775 4.07226C402.775 1.82324 404.599 0 406.848 0H425.852C428.1 0 429.924 1.82324 429.924 4.07226V23.0763C429.924 25.3251 428.1 27.1486 425.852 27.1486H406.848C404.599 27.1486 402.775 25.3251 402.775 23.0763V4.07226Z" fill="#E63415"/>
<path fill-rule="evenodd" clip-rule="evenodd" d="M413.825 18.3832C414.241 18.7932 414.915 18.757 415.286 18.3049L421.983 10.0898C422.327 9.66722 422.264 9.04489 421.838 8.70051C421.417 8.35613 420.793 8.41934 420.449 8.84209L414.449 16.2222L412.178 13.977C411.789 13.5929 411.164 13.5969 410.78 13.9847C410.395 14.3725 410.4 14.9983 410.789 15.3815L413.825 18.3841" fill="#FFFBF6"/>
<line y1="460.421" x2="224.21" y2="460.421" stroke="#000230" stroke-width="2.21977"/>
<defs>
<linearGradient id="paint0_linear_909_10907" x1="95.2632" y1="210.654" x2="116.815" y2="423.751" gradientUnits="userSpaceOnUse">
<stop stop-color="#D2D2D2"/>
<stop offset="0.604167" stop-color="#ECECF1"/>
<stop offset="1" stop-color="#E2E2E5"/>
</linearGradient>
<linearGradient id="paint1_linear_909_10907" x1="80.3908" y1="321.718" x2="101.205" y2="321.718" gradientUnits="userSpaceOnUse">
<stop stop-color="#CBCBCB"/>
<stop offset="1" stop-color="white" stop-opacity="0"/>
</linearGradient>
<linearGradient id="paint2_linear_909_10907" x1="84.0106" y1="338.685" x2="95.0962" y2="338.233" gradientUnits="userSpaceOnUse">
<stop stop-color="#ACABAB" stop-opacity="0.83"/>
<stop offset="1" stop-color="white" stop-opacity="0"/>
</linearGradient>
<linearGradient id="paint3_linear_909_10907" x1="60.2005" y1="211.129" x2="84.0848" y2="425.793" gradientUnits="userSpaceOnUse">
<stop stop-color="#D2D2D2"/>
<stop offset="0.604167" stop-color="#ECECF1"/>
<stop offset="1" stop-color="#E2E2E5"/>
</linearGradient>
<linearGradient id="paint4_linear_909_10907" x1="27.6772" y1="254.526" x2="52.337" y2="253.847" gradientUnits="userSpaceOnUse">
<stop stop-color="#B3B3B3"/>
<stop offset="1" stop-color="white" stop-opacity="0"/>
</linearGradient>
<linearGradient id="paint5_linear_909_10907" x1="60.2005" y1="211.129" x2="60.2553" y2="280.317" gradientUnits="userSpaceOnUse">
<stop stop-color="#9F9F9F"/>
<stop offset="1" stop-color="white" stop-opacity="0"/>
</linearGradient>
<linearGradient id="paint6_linear_909_10907" x1="81.7691" y1="81.4557" x2="65.1199" y2="89.5057" gradientUnits="userSpaceOnUse">
<stop stop-color="#F4B88E"/>
<stop offset="0.978667" stop-color="#FFA261"/>
</linearGradient>
<linearGradient id="paint7_linear_909_10907" x1="60.5527" y1="67.2121" x2="79.5802" y2="64.529" gradientUnits="userSpaceOnUse">
<stop stop-color="#FEA568"/>
<stop offset="1" stop-color="#F4B88E"/>
</linearGradient>
<linearGradient id="paint8_linear_909_10907" x1="59.0138" y1="59.8436" x2="74.9395" y2="25.5995" gradientUnits="userSpaceOnUse">
<stop offset="0.0300609" stop-color="#872E1E"/>
<stop offset="1" stop-color="#B6250C"/>
</linearGradient>
</defs>
</svg>
