<svg width="32" height="33" viewBox="0 0 32 33" fill="none" xmlns="http://www.w3.org/2000/svg">
<g id="instagram">
<g id="Subtract">
<path fill-rule="evenodd" clip-rule="evenodd" d="M3.33203 16.4589C3.33203 10.652 3.33203 7.74857 5.18702 5.94459C7.04202 4.14062 10.0276 4.14062 15.9987 4.14062C21.9698 4.14062 24.9554 4.14062 26.8104 5.94459C28.6654 7.74856 28.6654 10.652 28.6654 16.4589V16.4589V16.4589C28.6654 22.2657 28.6654 25.1692 26.8104 26.9732C24.9554 28.7772 21.9698 28.7772 15.9987 28.7772C10.0276 28.7772 7.04202 28.7772 5.18702 26.9732C3.33203 25.1692 3.33203 22.2657 3.33203 16.4589ZM16 12.125C13.475 12.125 11.5 14.105 11.5 16.46C11.5 18.815 13.475 20.7949 16 20.7949C18.525 20.7949 20.5 18.815 20.5 16.46C20.5 14.105 18.525 12.125 16 12.125ZM8.5 16.46C8.5 12.3698 11.8976 9.125 16 9.125C20.1025 9.125 23.5 12.3698 23.5 16.46C23.5 20.5501 20.1024 23.7949 16 23.7949C11.8976 23.7949 8.5 20.5501 8.5 16.46ZM23.332 7.32812C22.2275 7.32812 21.332 8.22356 21.332 9.32812C21.332 10.4327 22.2275 11.3281 23.332 11.3281H23.344C24.4486 11.3281 25.344 10.4327 25.344 9.32812C25.344 8.22356 24.4486 7.32812 23.344 7.32812H23.332Z" fill="white"/>
<path d="M5.18702 5.94459L4.66414 5.40691L4.66413 5.40692L5.18702 5.94459ZM26.8104 5.94459L27.3333 5.40693L27.3333 5.40691L26.8104 5.94459ZM26.8104 26.9732L27.3333 27.5109L27.3333 27.5109L26.8104 26.9732ZM5.18702 26.9732L4.66412 27.5109L4.66414 27.5109L5.18702 26.9732ZM4.66413 5.40692C3.57041 6.47056 3.06488 7.83367 2.82097 9.59794C2.58035 11.3384 2.58203 13.5772 2.58203 16.4589H4.08203C4.08203 13.5337 4.08371 11.4173 4.30684 9.80336C4.52668 8.21319 4.94864 7.22259 5.7099 6.48226L4.66413 5.40692ZM15.9987 3.39062C13.0338 3.39062 10.7367 3.38912 8.95208 3.62245C7.148 3.85833 5.75494 4.34612 4.66414 5.40691L5.7099 6.48226C6.47409 5.7391 7.50131 5.3249 9.14655 5.10979C10.8113 4.89213 12.9925 4.89062 15.9987 4.89062V3.39062ZM27.3333 5.40691C26.2425 4.34611 24.8494 3.85833 23.0453 3.62245C21.2607 3.38912 18.9636 3.39062 15.9987 3.39062V4.89062C19.0049 4.89062 21.1861 4.89213 22.8508 5.10979C24.4961 5.3249 25.5233 5.7391 26.2876 6.48227L27.3333 5.40691ZM29.4154 16.4589C29.4154 13.5772 29.417 11.3384 29.1764 9.59794C28.9325 7.83368 28.427 6.47057 27.3333 5.40693L26.2875 6.48225C27.0488 7.22258 27.4707 8.21318 27.6906 9.80335C27.9137 11.4173 27.9154 13.5337 27.9154 16.4589H29.4154ZM29.4154 16.4589V16.4589H27.9154V16.4589H29.4154ZM29.4154 16.4589V16.4589H27.9154V16.4589H29.4154ZM27.3333 27.5109C28.427 26.4472 28.9325 25.0841 29.1764 23.3198C29.417 21.5793 29.4154 19.3405 29.4154 16.4589H27.9154C27.9154 19.3841 27.9137 21.5005 27.6906 23.1144C27.4707 24.7046 27.0488 25.6952 26.2875 26.4356L27.3333 27.5109ZM15.9987 29.5272C18.9636 29.5272 21.2607 29.5287 23.0453 29.2953C24.8494 29.0595 26.2425 28.5717 27.3333 27.5109L26.2876 26.4356C25.5233 27.1787 24.4961 27.5929 22.8508 27.808C21.1861 28.0256 19.0049 28.0272 15.9987 28.0272V29.5272ZM4.66414 27.5109C5.75495 28.5717 7.14801 29.0595 8.95208 29.2953C10.7367 29.5287 13.0338 29.5272 15.9987 29.5272V28.0272C12.9925 28.0272 10.8113 28.0256 9.14654 27.808C7.50131 27.5929 6.47408 27.1787 5.70989 26.4356L4.66414 27.5109ZM2.58203 16.4589C2.58203 19.3405 2.58035 21.5793 2.82097 23.3198C3.06488 25.0841 3.57041 26.4472 4.66412 27.5109L5.70991 26.4356C4.94864 25.6952 4.52668 24.7046 4.30684 23.1144C4.08371 21.5005 4.08203 19.3841 4.08203 16.4589H2.58203ZM12.25 16.46C12.25 14.5368 13.8714 12.875 16 12.875V11.375C13.0786 11.375 10.75 13.6732 10.75 16.46H12.25ZM16 20.0449C13.8714 20.0449 12.25 18.3832 12.25 16.46H10.75C10.75 19.2468 13.0786 21.5449 16 21.5449V20.0449ZM19.75 16.46C19.75 18.3832 18.1286 20.0449 16 20.0449V21.5449C18.9214 21.5449 21.25 19.2468 21.25 16.46H19.75ZM16 12.875C18.1286 12.875 19.75 14.5368 19.75 16.46H21.25C21.25 13.6732 18.9214 11.375 16 11.375V12.875ZM16 8.375C11.5044 8.375 7.75 11.9348 7.75 16.46H9.25C9.25 12.8048 12.2907 9.875 16 9.875V8.375ZM24.25 16.46C24.25 11.9348 20.4956 8.375 16 8.375V9.875C19.7093 9.875 22.75 12.8048 22.75 16.46H24.25ZM16 24.5449C20.4956 24.5449 24.25 20.9851 24.25 16.46H22.75C22.75 20.1152 19.7093 23.0449 16 23.0449V24.5449ZM7.75 16.46C7.75 20.9851 11.5044 24.5449 16 24.5449V23.0449C12.2907 23.0449 9.25 20.1152 9.25 16.46H7.75ZM22.082 9.32812C22.082 8.63777 22.6417 8.07812 23.332 8.07812V6.57812C21.8132 6.57812 20.582 7.80934 20.582 9.32812H22.082ZM23.332 10.5781C22.6417 10.5781 22.082 10.0185 22.082 9.32812H20.582C20.582 10.8469 21.8132 12.0781 23.332 12.0781V10.5781ZM23.344 10.5781H23.332V12.0781H23.344V10.5781ZM24.594 9.32812C24.594 10.0185 24.0344 10.5781 23.344 10.5781V12.0781C24.8628 12.0781 26.094 10.8469 26.094 9.32812H24.594ZM23.344 8.07812C24.0344 8.07812 24.594 8.63777 24.594 9.32812H26.094C26.094 7.80934 24.8628 6.57812 23.344 6.57812V8.07812ZM23.332 8.07812H23.344V6.57812H23.332V8.07812Z" fill="white"/>
</g>
</g>
</svg>
