<svg width="26" height="25" viewBox="0 0 26 25" fill="none" xmlns="http://www.w3.org/2000/svg">
<g id="LinkedIn">
<path id="Subtract" fill-rule="evenodd" clip-rule="evenodd" d="M1.85499 2.06535C0 3.86705 0 6.76682 0 12.5663C0 18.3658 0 21.2656 1.85499 23.0674C3.70998 24.869 6.69554 24.869 12.6666 24.869H12.6667H12.6667C18.6377 24.869 21.6233 24.869 23.4784 23.0674C25.3333 21.2656 25.3333 18.3658 25.3333 12.5664V12.5663V12.5663C25.3333 6.76681 25.3333 3.86705 23.4784 2.06535C21.6233 0.263672 18.6377 0.263672 12.6667 0.263672C6.69555 0.263672 3.70999 0.263672 1.85499 2.06535ZM7.61246 8.2514C8.503 8.2514 9.22493 7.55022 9.22493 6.68527C9.22493 5.82032 8.503 5.11914 7.61246 5.11914C6.72192 5.11914 6 5.82032 6 6.68527C6 7.55022 6.72192 8.2514 7.61246 8.2514ZM6.2099 10.5437C6.41981 10.3398 6.75763 10.3398 7.4333 10.3398H7.79163C8.46729 10.3398 8.80512 10.3398 9.01503 10.5437C9.22493 10.7476 9.22493 11.0757 9.22493 11.732V17.6484C9.22493 18.3047 9.22493 18.6328 9.01503 18.8367C8.80512 19.0406 8.46729 19.0406 7.79163 19.0406H7.4333C6.75764 19.0406 6.41981 19.0406 6.2099 18.8367C6 18.6328 6 18.3047 6 17.6484V11.732C6 11.0757 6 10.7476 6.2099 10.5437ZM13.4003 10.3398H12.8083C12.1326 10.3398 11.7948 10.3398 11.5849 10.5437C11.375 10.7476 11.375 11.0757 11.375 11.732V17.6484C11.375 18.3047 11.375 18.6328 11.5849 18.8367C11.7948 19.0406 12.1326 19.0406 12.8083 19.0406H13.1666C13.8423 19.0406 14.1801 19.0406 14.39 18.8367C14.5999 18.6328 14.5999 18.3047 14.5999 17.6484L14.6 15.2123C14.6 14.0591 14.9784 13.1241 16.0962 13.1241C16.6551 13.1241 17.1082 13.5916 17.1082 14.1682V17.3005C17.1082 17.9567 17.1082 18.2848 17.3181 18.4887C17.5279 18.6926 17.8658 18.6926 18.5415 18.6926H18.8989C19.5744 18.6926 19.9122 18.6926 20.1221 18.4888C20.332 18.285 20.3321 17.9569 20.3322 17.3008V17.3008L20.3332 13.4722C20.3332 11.7424 18.6393 10.34 16.9626 10.34C16.0081 10.34 15.1565 10.7944 14.6 11.505V11.5046C14.5999 11.0663 14.5999 10.8471 14.5019 10.6844C14.4398 10.5813 14.3513 10.4954 14.2452 10.4351C14.0776 10.3398 13.8518 10.3398 13.4003 10.3398Z" fill="white"/>
</g>
</svg>
