<svg width="57" height="80" viewBox="0 0 57 80" fill="none" xmlns="http://www.w3.org/2000/svg">
<g id="Sanam Logo animated" clip-path="url(#clip0_909_10674)">
<path id="Vector" d="M3.96863 79.5633C3.10858 79.5633 2.40878 79.4883 1.87458 79.3382C1.34038 79.1881 0.929051 78.979 0.645926 78.7109C0.389512 78.4429 0.245278 78.1212 0.202543 77.7566C0.159807 77.3867 0.138439 76.9363 0.138439 76.3949H0.645926C0.758108 77.0918 1.04657 77.644 1.51667 78.0622C1.98142 78.4804 2.65985 78.6895 3.55196 78.6895C4.3586 78.6895 4.93553 78.5501 5.2881 78.2659C5.64067 77.9818 5.81695 77.6279 5.81695 77.2044C5.81695 76.7809 5.6567 76.427 5.33084 76.1536C5.00497 75.8748 4.53488 75.6121 3.90987 75.3548L2.68122 74.824C1.87458 74.497 1.24423 74.111 0.784817 73.6553C0.325408 73.1996 0.0957031 72.6259 0.0957031 71.9343C0.0957031 71.0283 0.442931 70.3367 1.13205 69.8595C1.82116 69.3877 2.6919 69.1465 3.73893 69.1465C4.55625 69.1465 5.23468 69.2215 5.77422 69.3717C6.30842 69.5218 6.71441 69.7309 6.9815 69.9989C7.2486 70.267 7.40352 70.5887 7.44626 70.9532C7.48899 71.3231 7.51036 71.7735 7.51036 72.315H7.00287C6.89069 71.6234 6.60222 71.0658 6.13213 70.6476C5.66738 70.2294 5.01032 70.0204 4.16094 70.0204C3.48251 70.0204 2.97503 70.1598 2.63848 70.4439C2.30194 70.728 2.13099 71.0819 2.13099 71.5054C2.13099 71.8753 2.27523 72.2024 2.56369 72.4812C2.85216 72.7653 3.25281 73.0173 3.7603 73.2478L5.03168 73.7786C5.96119 74.1592 6.66633 74.572 7.13642 75.0117C7.60652 75.4513 7.8469 76.041 7.8469 76.7755C7.8469 77.6816 7.47831 78.3732 6.74646 78.8449C6.01461 79.3221 5.0851 79.558 3.97397 79.558L3.96863 79.5633Z" fill="white"/>
<path id="Vector_2" d="M12.6758 79.5619C12.2965 79.5619 11.9226 79.5083 11.554 79.4011C11.1854 79.2938 10.8435 79.1223 10.5284 78.8917C10.2132 78.6612 9.95142 78.3556 9.75377 77.9803C9.55612 77.6051 9.45996 77.1493 9.45996 76.6079C9.45996 75.8573 9.68967 75.2622 10.1491 74.8226C10.6085 74.383 11.2495 74.0666 12.0775 73.879C12.9055 73.686 13.8617 73.5895 14.9462 73.5895H15.4964C15.4964 72.6245 15.4056 71.89 15.2186 71.3807C15.037 70.8713 14.7806 70.5175 14.4547 70.3191C14.1288 70.1208 13.7549 70.0189 13.3329 70.0189C12.7666 70.0189 12.2859 70.1476 11.8906 70.3996C11.4953 70.6569 11.2175 71.1448 11.0626 71.8685H10.0476C10.0476 71.4986 10.0689 71.1448 10.1117 70.807C10.1544 70.4693 10.3093 70.1637 10.5764 69.8956C10.8435 69.6275 11.2762 69.4345 11.8799 69.3219C12.4782 69.2094 13.1032 69.1504 13.7549 69.1504C14.2891 69.1504 14.7912 69.2201 15.256 69.3541C15.7208 69.4881 16.1321 69.7133 16.4847 70.035C16.8372 70.3513 17.115 70.8016 17.3233 71.386C17.5263 71.965 17.6278 72.7102 17.6278 73.6163V79.3528H16.3778L15.6353 78.3985H15.5284C15.3148 78.6827 14.9782 78.9454 14.5135 79.1973C14.0487 79.4493 13.4344 79.5673 12.6705 79.5673L12.6758 79.5619ZM13.5466 78.5862C14.0541 78.5862 14.46 78.4468 14.7645 78.1733C15.069 77.8946 15.3094 77.5943 15.4964 77.2726V74.4687H14.9462C13.8991 74.4687 13.0978 74.6617 12.5423 75.0424C11.9867 75.423 11.7036 75.9484 11.7036 76.6132C11.7036 77.278 11.8852 77.7766 12.2538 78.0983C12.6224 78.4253 13.0498 78.5862 13.5466 78.5862Z" fill="white"/>
<path id="Vector_3" d="M20.7639 79.3479V71.9763C20.7639 71.3383 20.6731 70.8236 20.4968 70.4376C20.3205 70.0462 19.9145 69.8532 19.2788 69.8532H18.9209V69.3653H20.8707C21.3942 69.3653 21.7895 69.435 22.0673 69.5798C22.3451 69.7192 22.5428 69.9283 22.671 70.1963C22.9541 69.9551 23.3387 69.7192 23.8248 69.494C24.3109 69.2688 24.8986 69.1562 25.593 69.1562C26.2875 69.1562 26.8858 69.2688 27.4467 69.494C28.0022 69.7192 28.451 70.1105 28.7929 70.6627C29.1294 71.215 29.3003 71.9923 29.3003 73.0002V79.3533H27.1849V73.0002C27.1849 72.2926 27.0781 71.7296 26.8697 71.3115C26.6561 70.8933 26.3836 70.5931 26.0417 70.4108C25.7052 70.2285 25.3366 70.132 24.9413 70.132C24.5193 70.132 24.1347 70.2339 23.7874 70.4322C23.4402 70.6306 23.1464 70.8558 22.906 71.1131V79.3587H20.7692L20.7639 79.3479Z" fill="white"/>
<path id="Vector_4" d="M34.6319 79.5619C34.2526 79.5619 33.8787 79.5083 33.5101 79.4011C33.1415 79.2938 32.7996 79.1223 32.4844 78.8917C32.1692 78.6612 31.9075 78.3556 31.7098 77.9803C31.5122 77.6051 31.416 77.1493 31.416 76.6079C31.416 75.8573 31.6457 75.2622 32.1051 74.8226C32.5645 74.383 33.2056 74.0666 34.0336 73.879C34.8616 73.686 35.8178 73.5895 36.9022 73.5895H37.4524C37.4524 72.6245 37.3616 71.89 37.1747 71.3807C36.993 70.8713 36.7366 70.5175 36.4108 70.3191C36.0849 70.1208 35.711 70.0189 35.2889 70.0189C34.7227 70.0189 34.2419 70.1476 33.8466 70.3996C33.4513 70.6569 33.1735 71.1448 33.0186 71.8685H32.0036C32.0036 71.4986 32.025 71.1448 32.0677 70.807C32.1105 70.4693 32.2654 70.1637 32.5325 69.8956C32.7996 69.6275 33.2323 69.4345 33.8359 69.3219C34.4342 69.2094 35.0592 69.1504 35.711 69.1504C36.2452 69.1504 36.7473 69.2201 37.2121 69.3541C37.6768 69.4881 38.0881 69.7133 38.4407 70.035C38.7933 70.3513 39.0711 70.8016 39.2794 71.386C39.4824 71.965 39.5839 72.7102 39.5839 73.6163V79.3528H38.3339L37.5913 78.3985H37.4845C37.2708 78.6827 36.9343 78.9454 36.4695 79.1973C36.0048 79.4493 35.3904 79.5673 34.6265 79.5673L34.6319 79.5619ZM35.5026 78.5862C36.0101 78.5862 36.4161 78.4468 36.7206 78.1733C37.0251 77.8946 37.2655 77.5943 37.4524 77.2726V74.4687H36.9022C35.8552 74.4687 35.0539 74.6617 34.4983 75.0424C33.9428 75.423 33.6596 75.9484 33.6596 76.6132C33.6596 77.278 33.8413 77.7766 34.2099 78.0983C34.5785 78.4253 35.0058 78.5862 35.5026 78.5862Z" fill="white"/>
<path id="Vector_5" d="M42.719 79.3479V71.9763C42.719 71.3383 42.6281 70.8236 42.4519 70.4376C42.2756 70.0462 41.8696 69.8532 41.2339 69.8532H40.876V69.3653H42.8258C43.3333 69.3653 43.7339 69.435 44.0224 69.5798C44.3109 69.7192 44.5139 69.9283 44.626 70.1963H44.7329C45 69.939 45.3632 69.7031 45.8226 69.4833C46.2821 69.2635 46.8269 69.1562 47.4626 69.1562C47.874 69.1562 48.2479 69.2045 48.5844 69.3064C48.921 69.4082 49.2255 69.5637 49.4819 69.7728C49.7436 69.9872 49.952 70.2553 50.1069 70.5823C50.4435 70.1427 50.8922 69.7942 51.4424 69.5423C51.9926 69.2903 52.5909 69.1616 53.2426 69.1616C53.8356 69.1616 54.3698 69.2742 54.8399 69.4994C55.3153 69.7245 55.6893 70.1159 55.9724 70.6681C56.2555 71.2203 56.3944 71.9977 56.3944 73.0056V79.3587H54.2576V73.0056C54.2576 71.9441 54.108 71.1989 53.8035 70.7753C53.4991 70.3518 53.0877 70.1374 52.5642 70.1374C52.1689 70.1374 51.7683 70.266 51.3569 70.5287C50.9456 70.7914 50.6464 71.0702 50.4488 71.3704C50.5182 71.542 50.5663 71.7886 50.5877 72.1156C50.609 72.4427 50.6197 72.7375 50.6197 73.0056V79.3587H48.5043V73.0056C48.5043 71.9441 48.3547 71.1989 48.0502 70.7753C47.7458 70.3518 47.3344 70.1374 46.8109 70.1374C46.4316 70.1374 46.0684 70.2392 45.7318 70.4429C45.3953 70.6467 45.1015 70.8879 44.8611 71.156V79.3587H42.7243L42.719 79.3479Z" fill="white"/>
<path id="Vector_6" d="M6.47402 51.877C5.38425 51.877 4.49215 52.1021 3.80837 52.5471C3.11926 52.9974 2.77737 53.5604 2.77737 54.2413V61.05C2.26454 61.3395 1.84787 61.7041 1.53269 62.1652C1.15876 62.712 0.971786 63.35 0.971786 64.0737V65.4837C0.971786 65.8537 0.923709 66.17 0.822211 66.4327C0.720714 66.6954 0.608532 66.9098 0.480325 67.0707C0.352118 67.2315 0.22391 67.3655 0.0957031 67.4674C0.165149 67.5371 0.255962 67.6175 0.373486 67.7033C0.485667 67.7891 0.619216 67.8641 0.779475 67.9392C0.934393 68.0089 1.12136 68.0464 1.3297 68.0464C1.62885 68.0464 1.91197 67.966 2.17907 67.8105C2.44617 67.655 2.66519 67.3977 2.83613 67.0439C3.00708 66.69 3.09255 66.2182 3.09255 65.6339V64.0791C3.09255 63.7521 3.16199 63.4411 3.30623 63.1409C3.45046 62.8407 3.68017 62.5994 4.00603 62.4064C4.33189 62.2134 4.77527 62.1169 5.34686 62.1169H6.96014C7.79348 62.1169 8.54136 61.9132 9.20376 61.5111C9.86083 61.1036 10.379 60.5193 10.7529 59.7526C11.1269 58.9859 11.3138 58.0585 11.3138 56.9808C11.3138 55.3725 10.8758 54.1233 10.0051 53.228C9.13432 52.3327 7.95374 51.8823 6.46868 51.8823L6.47402 51.877ZM8.46123 59.5328C7.9858 60.1279 7.30202 60.4281 6.40991 60.4281H5.34686C5.20263 60.4281 5.06374 60.4388 4.9195 60.4496V54.2466C4.93553 54.0322 5.06908 53.866 5.32549 53.748C5.58191 53.6301 5.96119 53.5657 6.47402 53.5657C7.3501 53.5657 8.02319 53.8445 8.4826 54.4075C8.94201 54.9704 9.17171 55.8282 9.17171 56.9755C9.17171 58.1228 8.93667 58.9377 8.46123 59.5328Z" fill="white"/>
<path id="Vector_7" d="M21.4209 50.4883C21.7628 50.4883 22.0619 50.3597 22.3237 50.1023C22.5855 49.845 22.719 49.5394 22.719 49.1856C22.719 48.8317 22.5855 48.5208 22.3237 48.2581C22.0619 47.9954 21.7628 47.8613 21.4209 47.8613C21.0363 47.8613 20.7211 47.9954 20.4647 48.2581C20.2083 48.5208 20.0801 48.8317 20.0801 49.1856C20.0801 49.5394 20.2083 49.845 20.4647 50.1023C20.7211 50.3597 21.0363 50.4883 21.4209 50.4883Z" fill="white"/>
<path id="Vector_8" d="M56.2503 55.1525C56.1649 54.5788 56.0206 54.0427 55.8123 53.5441C55.6039 53.0455 55.3422 52.6434 55.0163 52.3378C54.6905 52.0322 54.2845 51.8821 53.8037 51.8821C53.5793 51.8821 53.3763 51.9196 53.2107 51.9893C53.0398 52.059 52.9009 52.1448 52.7834 52.2467C52.6712 52.3485 52.5857 52.445 52.527 52.5469C53.0238 52.9436 53.3924 53.3886 53.6328 53.8818C53.8731 54.3751 54.0387 54.8629 54.1242 55.3562C54.2097 55.8494 54.2524 56.3266 54.2524 56.7984C54.2524 57.0128 54.2417 57.2755 54.2204 57.5865C54.199 57.8974 54.1456 58.2191 54.0601 58.5461C53.9746 58.8731 53.8571 59.1787 53.6969 59.4629C53.5419 59.747 53.3336 59.9829 53.0825 60.1652C52.8261 60.3475 52.5163 60.444 52.1477 60.444H51.0205C50.6359 60.444 50.3101 60.326 50.0429 60.0794C49.7759 59.8382 49.5729 59.5379 49.45 59.1841C49.3218 58.8303 49.2577 58.4657 49.2577 58.0958V53.6191C49.2577 53.2653 49.1669 52.9972 48.9799 52.8203C48.7983 52.6434 48.5312 52.5523 48.1946 52.5523C47.8581 52.5523 47.6124 52.6434 47.42 52.8203C47.2277 52.9972 47.1316 53.2653 47.1316 53.6191V58.0958C47.1316 58.4657 47.0675 58.8303 46.9393 59.1841C46.8111 59.5379 46.6187 59.8382 46.3677 60.0794C46.1113 60.3207 45.7801 60.444 45.3687 60.444H44.5621C44.1668 60.444 43.8356 60.326 43.5738 60.0794C43.3121 59.8382 43.1144 59.5379 42.9916 59.1841C42.8633 58.8303 42.7992 58.4657 42.7992 58.0958V54.1285C42.7992 53.7746 42.7084 53.5066 42.5215 53.3296C42.3398 53.1527 42.0727 53.0616 41.7362 53.0616C41.3996 53.0616 41.1325 53.1527 40.9509 53.3296C40.7693 53.5066 40.6731 53.7746 40.6731 54.1285V58.0958C40.6731 58.4657 40.609 58.8303 40.4808 59.1841C40.3526 59.5379 40.1603 59.8382 39.9092 60.0794C39.6528 60.3207 39.3216 60.444 38.9103 60.444H24.2252C23.8299 60.444 23.4987 60.326 23.2369 60.0794C22.9752 59.8382 22.7775 59.5379 22.6547 59.1841C22.5265 58.8303 22.4624 58.4657 22.4624 58.0958V52.9544C22.4624 52.6005 22.3715 52.3325 22.1846 52.1555C22.0029 51.9786 21.7358 51.8875 21.3993 51.8875C21.0628 51.8875 20.7957 51.9786 20.614 52.1555C20.4324 52.3325 20.3362 52.6005 20.3362 52.9544V58.0958C20.3362 58.4657 20.2721 58.8303 20.1439 59.1841C20.0157 59.5379 19.8234 59.8382 19.5723 60.0794C19.3159 60.3207 18.9847 60.444 18.5734 60.444H17.2539C16.8586 60.444 16.5274 60.326 16.2657 60.0794C16.0039 59.8382 15.8063 59.5379 15.6834 59.1841C15.5552 58.8303 15.4911 58.4657 15.4911 58.0958V50.4614C15.4911 49.877 15.4056 49.4106 15.2347 49.0514C15.0637 48.6975 14.8447 48.4402 14.5776 48.2847C14.3105 48.1292 14.0274 48.0488 13.7282 48.0488C13.4611 48.0488 13.2207 48.0971 13.0071 48.1882C12.7934 48.2794 12.6224 48.3866 12.4996 48.5099C12.3714 48.6332 12.2859 48.7351 12.2432 48.8208C12.3874 48.9066 12.5423 49.046 12.7239 49.2497C12.9002 49.4481 13.0551 49.7054 13.1834 50.0271C13.3116 50.3488 13.3757 50.7402 13.3757 51.212V58.1011C13.3757 58.8678 13.5413 59.5594 13.8725 60.1706C14.2037 60.7817 14.6631 61.2643 15.256 61.6127C15.8437 61.9612 16.5114 62.1381 17.2646 62.1381H18.5841C19.348 62.1381 20.0211 61.9666 20.6033 61.6127C20.9078 61.4305 21.1749 61.2106 21.41 60.9533C21.6504 61.2053 21.9175 61.4305 22.2273 61.6127C22.8149 61.9612 23.4827 62.1381 24.2359 62.1381H38.921C39.6849 62.1381 40.358 61.9666 40.9402 61.6127C41.2447 61.4305 41.5118 61.2106 41.7469 60.9533C41.9873 61.2106 42.2544 61.4305 42.5642 61.6127C43.1518 61.9612 43.8196 62.1381 44.5728 62.1381H45.3794C46.1433 62.1381 46.8164 61.9666 47.3987 61.6127C47.7032 61.4305 47.9703 61.2106 48.2053 60.9533C48.4457 61.2106 48.7128 61.4305 49.0226 61.6127C49.6102 61.9612 50.278 62.1381 51.0312 62.1381H52.1584C53.4885 62.1381 54.5302 61.6663 55.2727 60.7281C56.0153 59.7899 56.3892 58.4979 56.3892 56.8466C56.3892 56.3051 56.3465 55.7476 56.261 55.1739L56.2503 55.1525Z" fill="white"/>
<path id="Vector_9" d="M35.8335 39.6862C35.5503 39.3859 35.4328 39.2573 35.31 39.1339C34.2131 37.9723 34.2398 36.8107 35.3901 35.6491C35.9777 35.0594 36.5653 34.4643 37.2064 33.9336C38.4136 32.9364 39.9842 32.8828 41.2075 33.6923C41.6776 34.0033 41.7257 34.2338 41.3036 34.6305C40.5024 35.3811 39.7438 36.1745 38.9692 36.9519C38.7235 37.1985 38.4564 37.4237 38.8357 37.7883C39.4126 38.3351 39.9308 38.9463 40.5344 39.461C41.1113 39.9489 43.7396 39.7558 44.2738 39.2251C45.5078 37.9974 46.7204 36.7482 47.9651 35.5312C48.3497 35.1559 48.3604 34.9254 47.9651 34.5394C44.8774 31.4727 44.3379 31.9177 41.2823 28.8136C40.8336 28.3579 40.31 28.3847 39.856 28.8726C38.7716 30.0359 35.326 27.5269 34.2469 28.6903C33.7768 29.1996 33.5204 29.205 33.0236 28.6903C30.2244 25.8167 27.9487 23.1843 25.1495 20.3107C24.5886 19.737 24.2948 19.6459 23.6805 20.2839C20.892 23.1682 18.034 25.9882 15.2028 28.8297C14.738 29.2961 11.2551 29.5105 10.7583 29.1889C10.5232 29.0334 10.582 28.7921 10.582 28.5777C10.582 23.2272 10.582 17.8767 10.5713 12.5208C10.5713 12.1509 10.6354 11.8989 10.9933 11.6952C12.8363 10.6605 14.6472 9.56141 16.5116 8.55886C17.815 7.8619 19.0704 8.14605 20.2029 9.05746C20.8386 9.56677 20.9881 9.94206 20.096 10.4192C18.2637 11.4003 16.4902 12.4886 14.6953 13.5287C14.3374 13.7378 13.9955 13.8933 13.9955 14.4348C14.0169 17.6461 14.0062 20.8629 14.0062 24.0796C14.4656 24.1493 15.1707 23.9938 15.363 23.8008C18.1515 21.0184 20.9507 18.2466 23.6858 15.4159C24.3108 14.7672 24.5993 14.8905 25.1495 15.4588C27.9274 18.3056 30.187 20.895 32.9488 23.7526C33.5311 24.353 33.8249 24.2565 34.3217 23.7204C35.3527 22.616 38.7555 25.1894 39.7758 24.0689C40.2887 23.506 40.8496 23.5381 41.3571 24.0528C44.9415 27.6984 45.2994 28.181 49.5784 31.8212C51.6617 33.9121 53.7718 35.5687 55.8926 37.6274C56.4909 38.2065 56.4107 38.4745 55.727 38.8391C54.322 39.5843 52.7942 39.4235 51.5923 38.1475C50.9673 37.488 50.6521 37.606 50.1072 38.185C48.729 39.6433 47.2706 41.0265 45.8764 42.4686C45.449 42.9136 45.027 43.1173 44.402 43.112C39.1081 43.0905 33.8142 43.0798 28.5257 43.1173C27.6442 43.1227 27.4947 42.8654 27.7564 42.0773C28.2265 40.6565 29.4712 39.7183 31.1219 39.6862C32.6176 39.6593 34.108 39.6808 35.8281 39.6808L35.8335 39.6862Z" fill="white"/>
<path id="Vector_10" d="M13.2797 39.6594C14.8663 39.6594 16.2285 39.6272 17.5854 39.6701C19.188 39.7183 20.5234 40.8764 20.8386 42.3454C20.9561 42.9029 20.8386 43.0852 20.2617 43.0852C15.9934 43.0691 11.7252 43.0691 7.45164 43.0852C7.02962 43.0852 6.76252 42.919 6.47405 42.6349C4.93022 41.0747 3.38639 39.5146 1.80517 37.9974C1.31371 37.5256 1.40452 37.2415 1.84791 36.8179C3.23682 35.483 4.57765 34.0891 5.97191 32.7541C6.43132 32.3145 6.67171 31.9821 6.01464 31.5425C3.93128 30.1486 3.60007 28.1595 3.64815 25.7684C3.78704 18.9811 3.66952 12.1884 3.70691 5.40112C3.70691 4.48435 3.44516 4.26454 2.57441 4.29135C0.571175 4.34496 -0.347644 3.03682 0.304077 1.1872C0.336129 1.09069 0.39489 0.978109 0.47502 0.919135C1.16948 0.425902 3.31161 0.999554 3.53063 1.81982C3.7176 2.5007 4.06483 2.56503 4.6471 2.56503C8.87794 2.54359 13.1088 2.54895 17.345 2.56503C18.9476 2.56503 20.2617 3.51397 20.7478 4.91325C21.0202 5.69063 20.9508 6.03911 19.9572 6.02303C16.0308 5.96405 12.0992 6.02303 8.16746 5.98014C7.32343 5.96941 7.09907 6.1785 7.10441 7.04166C7.1418 13.6789 7.13646 20.3161 7.10975 26.9533C7.10975 27.5805 7.29672 28.0094 7.74544 28.433C8.81918 29.4409 9.83416 30.5185 10.9132 31.521C11.362 31.9392 11.4314 32.1751 10.9399 32.6415C9.48693 34.0194 8.10336 35.4776 6.66637 36.8769C6.26572 37.2683 6.19627 37.5095 6.62897 37.9599C8.30635 39.7398 8.29033 39.7559 10.0211 38.0135C11.1429 36.8876 12.2915 35.7886 13.3705 34.6252C13.9421 34.014 14.2359 34.2338 14.5137 34.8289C15.1174 36.1317 15.0853 37.3969 14.2146 38.5818C13.9742 38.9034 13.6911 39.1983 13.2851 39.6647L13.2797 39.6594Z" fill="white"/>
<path id="Vector_11" d="M34.6481 16.9865C31.9343 17.0294 29.6693 14.8152 29.5945 12.0434C29.5198 9.38425 31.8221 6.98778 34.5092 6.92881C37.2175 6.86983 39.6481 9.25558 39.6375 11.963C39.6268 14.6972 37.3938 16.9436 34.6481 16.9865Z" fill="white"/>
<path id="Vector_12" d="M55.8817 42.6552C55.6039 42.9393 55.262 43.0787 54.8667 43.0787C54.4714 43.0787 54.1349 42.9393 53.8571 42.6552C53.5793 42.3764 53.4404 42.0333 53.4404 41.6365C53.4404 41.2398 53.5793 40.902 53.8624 40.6233C54.1402 40.3445 54.4768 40.2051 54.8721 40.2051C55.2674 40.2051 55.6093 40.3445 55.8871 40.6233C56.1648 40.902 56.3091 41.2398 56.3091 41.6365C56.3091 42.0333 56.1702 42.3764 55.8871 42.6552H55.8817ZM53.996 40.7626C53.7556 41.0039 53.6381 41.2934 53.6381 41.6365C53.6381 41.9796 53.7556 42.2745 53.996 42.5158C54.2364 42.757 54.5248 42.8803 54.8667 42.8803C55.2086 42.8803 55.4971 42.757 55.7375 42.5158C55.9779 42.2745 56.0954 41.9796 56.0954 41.6365C56.0954 41.2934 55.9779 41.0039 55.7375 40.7626C55.4971 40.5214 55.2086 40.3981 54.8667 40.3981C54.5248 40.3981 54.2364 40.5214 53.996 40.7626ZM54.84 40.8431C55.0377 40.8431 55.1766 40.8645 55.2674 40.902C55.4276 40.9717 55.5131 41.1058 55.5131 41.3041C55.5131 41.4435 55.4597 41.5507 55.3582 41.6151C55.3048 41.6526 55.23 41.6741 55.1285 41.6901C55.2514 41.7116 55.3422 41.7598 55.4009 41.8456C55.4597 41.9314 55.4864 42.0118 55.4864 42.0922V42.2102C55.4864 42.2477 55.4864 42.2852 55.4864 42.3281C55.4864 42.371 55.4917 42.3978 55.5024 42.4085L55.5131 42.43H55.2514C55.2514 42.43 55.2514 42.4193 55.2514 42.4139C55.2514 42.4139 55.2514 42.4032 55.2514 42.3978V42.3496L55.246 42.2263C55.246 42.044 55.1979 41.926 55.0964 41.8671C55.0377 41.8349 54.9362 41.8188 54.7866 41.8188H54.5676V42.4407H54.2898V40.8645H54.84V40.8431ZM55.1392 41.0897C55.0697 41.0521 54.9576 41.0307 54.8026 41.0307H54.5676V41.6044H54.8187C54.9362 41.6044 55.0217 41.5936 55.0804 41.5668C55.1873 41.5239 55.2407 41.4435 55.2407 41.3202C55.2407 41.2076 55.2033 41.1272 55.1338 41.0897H55.1392Z" fill="white"/>
</g>
<defs>
<clipPath id="clip0_909_10674">
<rect width="56.3044" height="78.8261" fill="white" transform="translate(0.0957031 0.736328)"/>
</clipPath>
</defs>
</svg>
