<svg width="142" height="142" viewBox="0 0 142 142" fill="none" xmlns="http://www.w3.org/2000/svg">
<path id="Vector" fill-rule="evenodd" clip-rule="evenodd" d="M77.7013 1.1792C77.6978 3.92461 77.3833 6.45455 77.0454 6.45455C76.7858 6.45455 76.7098 7.01684 76.7098 8.93706V11.4196H77.5787C78.1854 11.4196 78.4476 11.5318 78.4476 11.792C78.4476 12.0608 78.7234 12.1643 79.4406 12.1643H80.4336V11.0782C80.4336 9.49786 80.6947 8.44056 81.0852 8.44056C81.3551 8.44056 81.4266 7.84252 81.4266 5.58566C81.4266 3.21337 81.4896 2.73077 81.799 2.73077C82.0038 2.73077 82.1728 2.59125 82.1748 2.42045C82.1765 2.24991 82.2421 1.87132 82.3205 1.57938C82.4548 1.0789 82.3483 1.03844 80.4552 0.870867C78.9875 0.740783 78.4476 0.599776 78.4476 0.346559C78.4476 0.155902 78.28 0 78.0752 0C77.7966 0 77.7023 0.297157 77.7013 1.1792ZM53.1259 2.35839C53.1259 2.60317 52.8811 2.73077 52.4122 2.73077C52.0197 2.73077 51.3494 2.80053 50.9226 2.88593C50.1692 3.03662 50.1469 3.07956 50.1469 4.37544C50.1469 5.3461 50.2404 5.70979 50.4902 5.70979C50.9269 5.70979 51.1322 6.47887 51.1364 8.13025C51.1394 9.26699 51.2034 9.43357 51.6364 9.43357C52.0728 9.43357 52.1329 9.59915 52.1329 10.799C52.1329 11.8093 52.224 12.1643 52.4834 12.1643C52.6989 12.1643 52.8987 12.5469 53.0017 13.1573C53.1591 14.089 53.2217 14.1503 54.0166 14.1503C54.5806 14.1503 54.8636 14.0332 54.8636 13.7998C54.8636 13.5843 55.2462 13.3845 55.8566 13.2815C56.4028 13.1891 56.8482 12.9838 56.8462 12.8252C56.838 12.1219 56.515 11.4196 56.2 11.4196C55.9363 11.4196 55.8566 10.9591 55.8566 9.43357C55.8566 7.90806 55.777 7.44755 55.5133 7.44755C55.0766 7.44755 54.8713 6.67847 54.8671 5.0271C54.8646 4.08225 54.7688 3.72378 54.5188 3.72378C54.3215 3.72378 54.1045 3.35264 54.0111 2.8549C53.8505 1.99843 53.1259 1.59204 53.1259 2.35839ZM104.266 9.55769C104.266 10.261 104.171 10.4266 103.769 10.4266C103.365 10.4266 103.273 10.5922 103.273 11.3188C103.273 12.002 103.157 12.2413 102.776 12.3406C102.403 12.4382 102.28 12.6792 102.28 13.3105C102.28 13.9848 102.182 14.1503 101.783 14.1503C101.369 14.1503 101.287 14.3159 101.287 15.1434C101.287 15.9708 101.204 16.1364 100.79 16.1364C100.388 16.1364 100.294 16.3019 100.294 17.0052C100.294 17.612 100.181 17.8741 99.9213 17.8741C99.7145 17.8741 99.549 18.0948 99.549 18.3706C99.549 18.6593 99.7145 18.8671 99.9447 18.8671C100.162 18.8671 100.399 19.0906 100.47 19.3636C100.58 19.7827 100.809 19.8601 101.936 19.8601C103.107 19.8601 103.273 19.7986 103.273 19.3636C103.273 19.0906 103.428 18.8671 103.618 18.8671C103.815 18.8671 104.032 18.496 104.125 17.9983C104.223 17.4782 104.433 17.1294 104.649 17.1294C104.848 17.1294 105.01 16.9059 105.01 16.6329C105.01 16.3019 105.176 16.1364 105.507 16.1364C105.921 16.1364 106.003 15.9708 106.003 15.1434C106.003 14.3159 106.086 14.1503 106.5 14.1503C106.902 14.1503 106.997 13.9848 106.997 13.2815C106.997 12.5782 107.091 12.4126 107.493 12.4126C107.857 12.4126 107.99 12.247 107.99 11.792C107.99 11.4057 108.13 11.1713 108.362 11.1713C108.567 11.1713 108.734 11.0038 108.734 10.799C108.734 10.5388 108.472 10.4266 107.865 10.4266C107.162 10.4266 106.997 10.332 106.997 9.93007C106.997 9.51623 106.831 9.43357 106.003 9.43357C105.286 9.43357 105.01 9.33005 105.01 9.06119C105.01 8.85638 104.843 8.68881 104.638 8.68881C104.378 8.68881 104.266 8.95096 104.266 9.55769ZM27.5559 14.771C27.5559 14.9778 27.3352 15.1434 27.0594 15.1434C26.7285 15.1434 26.5629 15.3089 26.5629 15.6399C26.5629 15.9708 26.3974 16.1364 26.0664 16.1364C25.6526 16.1364 25.5699 16.3019 25.5699 17.1294C25.5699 17.9568 25.6526 18.1224 26.0664 18.1224C26.3422 18.1224 26.5629 18.288 26.5629 18.4948C26.5629 18.6996 26.7181 18.8671 26.9078 18.8671C27.1029 18.8671 27.3209 19.2318 27.4102 19.7087C27.513 20.2563 27.7394 20.595 28.0587 20.6784C28.3499 20.7546 28.549 21.0175 28.549 21.3263C28.549 21.623 28.7088 21.8462 28.9213 21.8462C29.1261 21.8462 29.2937 22.0137 29.2937 22.2185C29.2937 22.4253 29.5144 22.5909 29.7902 22.5909C30.1211 22.5909 30.2867 22.7565 30.2867 23.0874C30.2867 23.4183 30.4523 23.5839 30.7832 23.5839C31.1141 23.5839 31.2797 23.7495 31.2797 24.0804C31.2797 24.3691 31.4453 24.5769 31.6754 24.5769C31.8929 24.5769 32.1295 24.8004 32.2007 25.0734C32.2722 25.3465 32.4852 25.5699 32.6742 25.5699C32.8628 25.5699 33.0175 25.3465 33.0175 25.0734C33.0175 24.7425 33.1831 24.5769 33.514 24.5769C33.7898 24.5769 34.0105 24.4113 34.0105 24.2045C34.0105 23.9978 34.2312 23.8322 34.507 23.8322C34.8712 23.8322 35.0035 23.6666 35.0035 23.2115C35.0035 22.8339 34.862 22.5909 34.6423 22.5909C34.428 22.5909 34.2168 22.2468 34.1225 21.7449C34.0214 21.2059 33.792 20.8539 33.4907 20.7752C33.2305 20.7072 33.0175 20.4733 33.0175 20.2559C33.0175 20.0381 32.8623 19.8601 32.6727 19.8601C32.4753 19.8601 32.2583 19.489 32.165 18.9913C32.0674 18.4712 31.8569 18.1224 31.6409 18.1224C31.4423 18.1224 31.2797 17.899 31.2797 17.6259C31.2797 17.295 31.1141 17.1294 30.7832 17.1294C30.4523 17.1294 30.2867 16.9638 30.2867 16.6329C30.2867 16.3019 30.1211 16.1364 29.7902 16.1364C29.3883 16.1364 29.2937 15.9708 29.2937 15.2675C29.2937 14.4401 29.2522 14.3986 28.4248 14.3986C27.8181 14.3986 27.5559 14.5108 27.5559 14.771ZM125.429 27.483C125.122 27.542 124.871 27.7372 124.871 27.9167C124.871 28.0961 124.647 28.3012 124.374 28.3727C124.101 28.4439 123.878 28.6674 123.878 28.8692C123.878 29.0708 123.654 29.2942 123.381 29.3657C123.108 29.4369 122.885 29.6735 122.885 29.891C122.885 30.1777 122.645 30.2867 122.016 30.2867C121.312 30.2867 121.147 30.3813 121.147 30.7832C121.147 31.1141 120.981 31.2797 120.65 31.2797C120.319 31.2797 120.154 31.4453 120.154 31.7762C120.154 32.1071 119.988 32.2727 119.657 32.2727C119.384 32.2727 119.161 32.4274 119.161 32.6161C119.161 32.805 118.937 33.018 118.664 33.0895C117.835 33.3064 118.062 35.5976 118.935 35.8262C119.211 35.8982 119.409 36.1673 119.409 36.4697C119.409 36.7663 119.569 36.9895 119.781 36.9895C119.988 36.9895 120.154 36.7688 120.154 36.493C120.154 36.1283 120.319 35.9965 120.777 35.9965C121.12 35.9965 121.591 35.7731 121.825 35.5C122.059 35.2269 122.449 35.0035 122.691 35.0035C122.967 35.0035 123.133 34.8173 123.133 34.507C123.133 34.1761 123.298 34.0105 123.629 34.0105C123.902 34.0105 124.126 33.8479 124.126 33.6493C124.126 33.4333 124.475 33.2228 124.995 33.1252C125.493 33.0319 125.864 32.8149 125.864 32.6175C125.864 32.4279 126.087 32.2727 126.36 32.2727C126.691 32.2727 126.857 32.1071 126.857 31.7762C126.857 31.3778 127.022 31.2797 127.694 31.2797C128.433 31.2797 128.551 31.1884 128.687 30.5094C128.858 29.6497 128.726 29.2937 128.235 29.2937C128.053 29.2937 127.834 28.9151 127.747 28.4521C127.637 27.8663 127.421 27.5656 127.037 27.4626C126.457 27.3072 126.333 27.3087 125.429 27.483ZM9.52492 35.9744C9.44077 36.3954 9.18407 36.7485 8.9105 36.8202C8.63817 36.8914 8.44056 37.1616 8.44056 37.4627C8.44056 37.7593 8.28069 37.9825 8.06818 37.9825C7.80801 37.9825 7.6958 38.2447 7.6958 38.8514C7.6958 39.6788 7.73726 39.7203 8.56469 39.7203C9.26798 39.7203 9.43357 39.8149 9.43357 40.2168C9.43357 40.6306 9.59915 40.7133 10.4266 40.7133C11.254 40.7133 11.4196 40.796 11.4196 41.2098C11.4196 41.6117 11.5852 41.7063 12.2885 41.7063C12.8714 41.7063 13.1573 41.8217 13.1573 42.0568C13.1573 42.2723 13.5399 42.4722 14.1503 42.5752C14.7608 42.6782 15.1434 42.878 15.1434 43.0935C15.1434 43.3304 15.4326 43.4441 16.0356 43.4441C16.7188 43.4441 16.9581 43.5602 17.0574 43.9406C17.2647 44.733 17.8041 44.5155 17.9819 43.5682C18.0794 43.0481 18.2899 42.6993 18.5059 42.6993C18.7045 42.6993 18.8686 42.5039 18.8706 42.2649C18.8723 42.0258 18.9414 41.5792 19.0235 41.2719C19.1422 40.829 19.0705 40.7133 18.6767 40.7133C18.389 40.7133 18.1256 40.5045 18.0504 40.2168C17.9511 39.8365 17.7118 39.7203 17.0286 39.7203C16.3019 39.7203 16.1364 39.6282 16.1364 39.2238C16.1364 38.8929 15.9708 38.7273 15.6399 38.7273C15.3668 38.7273 15.1434 38.5696 15.1434 38.3767C15.1434 38.1613 14.7608 37.9614 14.1503 37.8584C13.5868 37.7631 13.1573 37.5511 13.1573 37.3676C13.1573 37.1901 12.7663 36.9714 12.2885 36.8818C11.7684 36.7842 11.4196 36.5737 11.4196 36.3577C11.4196 36.1591 11.1962 35.9965 10.9231 35.9965C10.6473 35.9965 10.4266 35.8309 10.4266 35.6241C10.4266 34.9385 9.67363 35.2309 9.52492 35.9744ZM137.283 52.4742C137.283 52.829 136.251 53.1259 135.018 53.1259C134.549 53.1259 134.304 53.2535 134.304 53.4983C134.304 53.7726 134.018 53.8706 133.218 53.8706C131.657 53.8706 130.58 54.1306 130.58 54.5074C130.58 54.7053 130.214 54.8639 129.649 54.9108C128.948 54.9689 128.724 55.0948 128.739 55.4222C128.751 55.6613 128.779 56.4711 128.801 57.222L128.843 58.5874H129.836C130.553 58.5874 130.829 58.4839 130.829 58.215C130.829 57.9263 131.156 57.8427 132.287 57.8427C134.219 57.8427 135.297 57.6093 135.297 57.191C135.297 56.9331 135.737 56.8489 137.097 56.8462C140.031 56.8407 140.014 56.8536 140.014 54.7105C140.014 53.2468 139.939 52.8776 139.642 52.8776C139.437 52.8776 139.269 52.7101 139.269 52.5052C139.269 52.2364 138.993 52.1329 138.276 52.1329C137.599 52.1329 137.283 52.2416 137.283 52.4742ZM0.825189 62.7749C0.749224 63.0661 0.532252 63.3042 0.343332 63.3042C0.0891224 63.3042 0 63.691 0 64.7937V66.2832H1.98601C3.51152 66.2832 3.97203 66.3629 3.97203 66.6265C3.97203 67.1459 4.78853 67.269 8.25437 67.2728L11.4196 67.2762V65.7867C11.4196 64.6281 11.5022 64.2972 11.792 64.2972C11.9968 64.2972 12.1643 64.1453 12.1643 63.9593C12.1643 63.5825 10.4807 63.3099 8.13025 63.3064C7.02776 63.3047 6.7028 63.2193 6.7028 62.9318C6.7028 62.628 6.28052 62.5587 4.40647 62.556C3.14336 62.5542 1.85221 62.4835 1.53693 62.3991C1.09032 62.2797 0.933178 62.3626 0.825189 62.7749ZM130.58 72.8619V74.7238H133.149C137.337 74.7238 140.262 74.9944 140.262 75.3816C140.262 75.5991 140.567 75.7168 141.131 75.7168H142V73.3584V71H136.29H130.58V72.8619ZM12.1643 87.4876C12.1643 87.7436 11.6599 87.8861 10.3024 88.0132C9.0319 88.1324 8.44056 88.29 8.44056 88.5097C8.44056 88.7294 7.84922 88.8873 6.57867 89.0062C5.24357 89.1313 4.71678 89.2778 4.71678 89.5238C4.71678 89.7495 4.42409 89.8671 3.86255 89.8671C3.39261 89.8671 2.9465 89.9672 2.87078 90.0898C2.62601 90.4855 3.0324 92.5979 3.35338 92.5979C3.5222 92.5979 3.73172 93.0448 3.8191 93.5909C3.92188 94.2334 4.10832 94.5839 4.34738 94.5839C4.55045 94.5839 4.71678 94.4303 4.71678 94.2426C4.71678 93.9022 5.73958 93.5909 6.85795 93.5909C7.21643 93.5909 7.44755 93.4449 7.44755 93.2185C7.44755 92.9738 7.69233 92.8462 8.16128 92.8462C9.39409 92.8462 10.4266 92.5492 10.4266 92.1945C10.4266 91.9619 10.7426 91.8531 11.4196 91.8531C12.247 91.8531 12.4126 91.7705 12.4126 91.3566C12.4126 90.9406 12.5782 90.8601 13.4346 90.8601C14.3733 90.8601 14.4443 90.8147 14.3067 90.3016C14.2246 89.9942 14.1556 89.1564 14.1538 88.4397L14.1503 87.1364H13.1573C12.4667 87.1364 12.1643 87.2434 12.1643 87.4876ZM125.579 94.7503C125.084 94.8816 124.879 95.5672 124.874 97.1067L124.871 98.264L125.864 98.4318C126.474 98.5348 126.857 98.7347 126.857 98.9502C126.857 99.187 127.146 99.3007 127.749 99.3007C128.432 99.3007 128.671 99.4169 128.771 99.7972C128.868 100.17 129.109 100.294 129.741 100.294C130.415 100.294 130.58 100.392 130.58 100.79C130.58 101.204 130.746 101.287 131.573 101.287C132.401 101.287 132.566 101.369 132.566 101.783C132.566 102.22 132.732 102.28 133.932 102.28H135.297L135.301 101.473C135.306 100.294 135.556 99.549 135.947 99.549C136.136 99.549 136.29 99.3379 136.29 99.08C136.29 98.7409 136.05 98.5661 135.421 98.4482C134.901 98.3506 134.552 98.1401 134.552 97.9241C134.552 97.6682 134.263 97.5629 133.559 97.5629C132.732 97.5629 132.566 97.4803 132.566 97.0664C132.566 96.63 132.401 96.5699 131.201 96.5699C130.001 96.5699 129.836 96.5099 129.836 96.0734C129.836 95.6596 129.67 95.5769 128.843 95.5769C128.166 95.5769 127.85 95.4684 127.85 95.2356C127.85 95.0479 127.501 94.8245 127.074 94.7391C126.26 94.5762 126.233 94.5765 125.579 94.7503ZM23.2736 108.905C23.0345 108.968 22.8392 109.178 22.8392 109.373C22.8392 109.568 22.6157 109.727 22.3427 109.727C22.0117 109.727 21.8462 109.893 21.8462 110.224C21.8462 110.555 21.6806 110.72 21.3497 110.72C21.0187 110.72 20.8531 110.886 20.8531 111.217C20.8531 111.548 20.6876 111.713 20.3566 111.713C20.0836 111.713 19.8601 111.876 19.8601 112.074C19.8601 112.289 19.5161 112.5 19.0141 112.594C18.4751 112.695 18.1231 112.925 18.0444 113.226C17.9764 113.486 17.7426 113.699 17.5251 113.699C17.3074 113.699 17.1294 113.867 17.1294 114.072C17.1294 114.278 16.9087 114.444 16.6329 114.444C16.219 114.444 16.1364 114.61 16.1364 115.437C16.1364 116.264 16.219 116.43 16.6329 116.43C16.9638 116.43 17.1294 116.596 17.1294 116.927C17.1294 117.202 17.295 117.423 17.5017 117.423C17.7066 117.423 17.8741 117.584 17.8741 117.781C17.8741 117.978 17.9744 118.201 18.0968 118.276C18.4918 118.52 19.8601 118.117 19.8601 117.757C19.8601 117.565 20.0277 117.343 20.2325 117.265C20.4373 117.186 20.6049 116.966 20.6049 116.776C20.6049 116.586 20.8283 116.43 21.1014 116.43C21.3901 116.43 21.5979 116.264 21.5979 116.034C21.5979 115.817 21.8109 115.583 22.0716 115.515C22.332 115.447 22.6008 115.178 22.6689 114.918C22.7369 114.657 22.9707 114.444 23.1882 114.444C23.4059 114.444 23.5839 114.276 23.5839 114.072C23.5839 113.865 23.8046 113.699 24.0804 113.699C24.4113 113.699 24.5769 113.534 24.5769 113.203C24.5769 112.872 24.7425 112.706 25.0734 112.706C25.4043 112.706 25.5699 112.541 25.5699 112.21C25.5699 111.879 25.7355 111.713 26.0664 111.713C26.4684 111.713 26.5629 111.548 26.5629 110.844C26.5629 110.141 26.4684 109.976 26.0664 109.976C25.7464 109.976 25.5699 109.81 25.5699 109.51C25.5699 109.187 25.3321 108.997 24.7941 108.889C23.9769 108.726 23.9595 108.726 23.2736 108.905ZM111.403 114.615C111.164 114.678 110.969 114.888 110.969 115.083C110.969 115.278 110.745 115.437 110.472 115.437C110.058 115.437 109.976 115.603 109.976 116.43C109.976 117.147 110.079 117.423 110.348 117.423C110.553 117.423 110.72 117.591 110.72 117.795C110.72 118.002 110.941 118.168 111.217 118.168C111.581 118.168 111.713 118.333 111.713 118.788C111.713 119.244 111.846 119.409 112.21 119.409C112.486 119.409 112.706 119.575 112.706 119.781C112.706 119.986 112.874 120.154 113.079 120.154C113.285 120.154 113.451 120.375 113.451 120.65C113.451 120.972 113.617 121.147 113.92 121.147C114.259 121.147 114.434 121.387 114.552 122.016C114.649 122.536 114.86 122.885 115.076 122.885C115.274 122.885 115.437 123.108 115.437 123.381C115.437 123.712 115.603 123.878 115.934 123.878C116.264 123.878 116.43 124.043 116.43 124.374C116.43 124.705 116.596 124.871 116.927 124.871C117.202 124.871 117.423 124.705 117.423 124.498C117.423 124.293 117.601 124.126 117.819 124.126C118.036 124.126 118.273 123.902 118.344 123.629C118.416 123.355 118.683 123.133 118.942 123.133C119.244 123.133 119.409 122.957 119.409 122.636C119.409 122.361 119.575 122.14 119.781 122.14C119.988 122.14 120.154 121.919 120.154 121.643C120.154 121.312 119.988 121.147 119.657 121.147C119.326 121.147 119.161 120.981 119.161 120.65C119.161 120.319 118.995 120.154 118.664 120.154C118.389 120.154 118.168 119.988 118.168 119.781C118.168 119.577 118 119.409 117.795 119.409C117.589 119.409 117.423 119.188 117.423 118.913C117.423 118.582 117.257 118.416 116.927 118.416C116.596 118.416 116.43 118.251 116.43 117.92C116.43 117.589 116.264 117.423 115.934 117.423C115.603 117.423 115.437 117.257 115.437 116.927C115.437 116.596 115.271 116.43 114.941 116.43C114.61 116.43 114.444 116.264 114.444 115.934C114.444 115.66 114.289 115.437 114.101 115.437C113.912 115.437 113.699 115.214 113.627 114.941C113.528 114.561 113.303 114.451 112.668 114.473C112.211 114.489 111.642 114.553 111.403 114.615ZM42.2649 124.053C41.815 124.14 41.7063 124.326 41.7063 125.012C41.7063 125.698 41.6097 125.864 41.2098 125.864C40.796 125.864 40.7133 126.029 40.7133 126.857C40.7133 127.684 40.6306 127.85 40.2168 127.85C39.8029 127.85 39.7203 128.015 39.7203 128.843C39.7203 129.546 39.615 129.836 39.3591 129.836C39.1431 129.836 38.9326 130.184 38.835 130.705C38.7454 131.182 38.5309 131.573 38.3584 131.573C37.9741 131.573 37.6824 132.894 37.8867 133.708C38.0078 134.191 38.1963 134.304 38.8782 134.304C39.5547 134.304 39.7203 134.402 39.7203 134.801C39.7203 135.215 39.8859 135.297 40.7133 135.297C41.6827 135.297 41.7063 135.277 41.7063 134.428C41.7063 133.845 41.8217 133.559 42.0568 133.559C42.2723 133.559 42.4722 133.177 42.5752 132.566C42.6782 131.956 42.878 131.573 43.0935 131.573C43.3304 131.573 43.4441 131.284 43.4441 130.681C43.4441 129.998 43.5602 129.759 43.9406 129.659C44.3169 129.561 44.4371 129.321 44.4371 128.666C44.4371 128.012 44.5572 127.772 44.9336 127.673C45.3526 127.564 45.4301 127.335 45.4301 126.207C45.4301 125.185 45.3427 124.871 45.0577 124.871C44.8529 124.871 44.6853 124.717 44.6853 124.529C44.6853 124.241 43.4758 123.803 42.9786 123.911C42.8932 123.93 42.5722 123.994 42.2649 124.053ZM90.8601 127.201C90.8601 127.399 90.489 127.616 89.9913 127.709C89.1973 127.858 89.1224 127.946 89.1224 128.73C89.1224 129.326 89.2356 129.587 89.4948 129.587C89.7845 129.587 89.8671 129.918 89.8671 131.077C89.8671 132.401 89.9222 132.566 90.3636 132.566C90.7966 132.566 90.8606 132.733 90.8636 133.87C90.8678 135.521 91.0731 136.29 91.5098 136.29C91.7449 136.29 91.8531 136.603 91.8531 137.283V138.276H92.9392C94.5196 138.276 95.5769 138.015 95.5769 137.625C95.5769 137.437 95.8004 137.283 96.0734 137.283C96.4044 137.283 96.5699 137.118 96.5699 136.787C96.5699 136.456 96.4044 136.29 96.0734 136.29C95.637 136.29 95.5769 136.125 95.5769 134.925C95.5769 133.932 95.4838 133.559 95.2356 133.559C94.8987 133.559 94.5839 132.539 94.5839 131.447C94.5839 131.095 94.399 130.838 94.0874 130.757C93.7071 130.657 93.5909 130.418 93.5909 129.735C93.5909 129.107 93.4804 128.843 93.2185 128.843C92.9497 128.843 92.8462 128.567 92.8462 127.85V126.857H91.8531C91.1714 126.857 90.8601 126.965 90.8601 127.201ZM65.2902 133.932C65.2902 137.118 65.2656 137.283 64.7937 137.283C64.332 137.283 64.2972 137.449 64.2972 139.642V142H66.6556H69.014V136.29V130.58H67.1521H65.2902V133.932Z" fill="white"/>
</svg>
